<?xml version="1.0"?>
<svg xmlns="http://www.w3.org/2000/svg" id="thissvg" version="1.2" baseProfile="tiny" width="800" height="2145" viewBox="0 0 800 2145" stroke-linecap="round" stroke-linejoin="round">
<g id="thisg">
<path d="M 600.5078 1871.3491 597.8649 1860.7993 598.4727 1830.5794 593.8979 1830.5794 591.6106 1834.8529 560.3831 1834.8529 557.6979 1830.8775 553.1217 1832.1695 553.1217 1795.0847 595.4581 1804.1024 602.0389 1794.8544 608.3789 1779.1257 608.3789 1771.331 613.9918 1773.6039 613.9918 1715.7634 753.4674 1715.7634 781.303 1718.5907 781.303 1720.8579 798.1484 1730.1511 798.1484 1734.7652 786.2823 1745.7142 786.2823 1749.2941 771.5705 1767.2439 758.5979 1781.7606 747.051 1793.2271 726.408 1810.8261 701.2907 1828.0714 671.0716 1845.5488 645.1608 1856.9825 628.7553 1862.8292 600.5078 1871.3491 Z" id="152"/>
<path d="M 160.2789 1441.6522 160.2789 1474.0948 160.2416 1474.9493 160.1299 1475.7973 159.9448 1476.6323 159.6876 1477.4481 159.3603 1478.2383 158.9654 1478.9969 158.5058 1479.7183 157.9851 1480.3968 157.4073 1481.0274 156.7767 1481.6053 156.0981 1482.1259 155.3768 1482.5855 154.6181 1482.9804 153.8279 1483.3077 153.0122 1483.5649 152.1772 1483.7501 151.3292 1483.8617 150.4747 1483.899 132.8725 1483.899 132.8725 1508.1534 115.7418 1508.1534 115.7418 1527.039 12.3269 1462.647 11.1413 1461.8344 10.0318 1460.9207 9.0069 1459.9131 8.0744 1458.8193 7.2417 1457.6477 6.5152 1456.4076 5.9005 1455.1084 5.4023 1453.7602 5.0245 1452.3734 4.77 1450.9588 4.6408 1449.5273 4.6379 1448.09 4.7613 1446.6581 5.0101 1445.2424 5.3824 1443.8542 5.8751 1442.504 6.4846 1441.2023 7.2062 1439.9593 8.0342 1438.7844 8.9622 1437.6869 9.9831 1436.6751 11.0889 1435.757 12.2712 1434.9396 13.5207 1434.2293 14.8278 1433.6315 46.2279 1420.9092 77.5012 1420.8035 77.5012 1431.848 150.4747 1431.848 151.3292 1431.8853 152.1772 1431.997 153.0122 1432.1821 153.8279 1432.4393 154.6181 1432.7666 155.3768 1433.1615 156.0981 1433.6211 156.7767 1434.1418 157.4073 1434.7196 157.9851 1435.3502 158.5058 1436.0288 158.9654 1436.7501 159.3603 1437.5088 159.6876 1438.299 159.9448 1439.1147 160.1299 1439.9497 160.2416 1440.7977 160.2789 1441.6522 Z" id="216"/>
<path d="M 239.4088 1831.2442 239.4088 1842.5655 259.5325 1842.5655 259.5325 1848.3751 266.5385 1848.3751 266.5385 1853.7378 281.5939 1853.7378 281.5939 1860.5901 267.731 1871.6135 222.7137 1864.3142 199.7578 1849.8647 142.0681 1825.1367 142.0681 1806.7999 115.2169 1806.7999 112.8288 1788.3484 163.7177 1788.7832 172.2151 1786.6143 187.4908 1777.6741 187.4908 1784.291 191.2094 1785.7286 191.6509 1790.9854 192.9383 1792.6764 200.2954 1796.4995 219.9438 1805.0354 230.1777 1807.0343 236.8358 1806.4828 241.3467 1801.6004 258.0418 1812.6237 258.0418 1831.2442 239.4088 1831.2442 Z" id="290"/>
<path d="M 160.6135 1159.2444 180.7094 1174.7464 209.0639 1189.4572 213.0153 1191.6505 215.4667 1195.5618 216.9407 1199.6683 216.9407 1226.459 216.2527 1228.1969 213.2377 1231.0267 210.4976 1231.617 162.6381 1212.254 162.6381 1209.2541 157.2842 1207.6178 157.2842 1202.4315 149.8904 1202.4315 149.8904 1199.4837 151.4433 1199.1465 151.4433 1192.2511 138.2154 1192.2511 138.2154 1186.7923 131.4577 1186.7923 131.4577 1193.1131 131.4577 1206.4728 83.4547 1179.1252 83.4547 1159.3327 160.6135 1159.2444 Z" id="123"/>
<path d="M 597.8649 1860.7993 600.5078 1871.3491 571.2001 1874.1211 480.2457 1874.1211 479.6895 1874.0968 479.1375 1874.0241 478.594 1873.9037 478.0631 1873.7362 477.5487 1873.5232 477.0549 1873.2661 476.5854 1872.967 476.1437 1872.6281 475.7332 1872.252 475.3571 1871.8415 475.0182 1871.3998 474.7191 1870.9303 474.462 1870.4365 474.249 1869.9222 474.0816 1869.3912 473.9611 1868.8477 473.8884 1868.2957 473.8641 1867.7395 473.8641 1846.3402 523.8649 1846.3402 523.8649 1789.0139 549.8825 1794.3506 549.8825 1838.0173 564.9921 1838.0173 564.9921 1844.7898 596.5449 1844.7898 597.8649 1860.7993 Z" id="313"/>
<path d="M 63.3606 1740.9263 63.3606 1770.705 68.443 1779.3798 76.065 1782.8356 111.9165 1782.8356 111.9165 1814.116 117.0731 1814.116 117.0731 1820.9571 111.4978 1820.9571 86.6558 1807.8391 49.2421 1782.4377 6.8033 1754.8521 5.8885 1754.1984 5.0347 1753.4666 4.2486 1752.6626 3.5363 1751.7924 2.9034 1750.863 2.3548 1749.8814 1.8947 1748.8554 1.5266 1747.7929 1.2536 1746.7021 1.0776 1745.5914 1 1744.4696 1.0215 1743.3454 1.1418 1742.2274 1.3601 1741.1243 1.6746 1740.0447 2.083 1738.997 2.5819 1737.9893 3.1676 1737.0294 3.8356 1736.1248 4.5805 1735.2825 5.3968 1734.509 6.2779 1733.8104 7.2171 1733.1921 8.207 1732.6588 9.2401 1732.2147 45.3595 1718.54 82.621 1718.54 83.333 1719.4642 85.7325 1721.721 83.1918 1727.9979 74.6524 1728.8442 68.3007 1732.0884 64.6309 1735.6853 63.3606 1740.9263 Z" id="291"/>
<path d="M 719.5514 1460.1075 709.3249 1474.3175 696.8447 1485.9529 668.9897 1511.9223 659.1268 1501.7102 633.9278 1520.2807 626.7193 1510.4251 652.3146 1489.7286 655.6902 1479.3422 655.6902 1465.7516 660.9501 1465.7516 660.9501 1425.485 694.6477 1427.3626 693.5449 1420.9191 710.8332 1420.9191 717.6132 1425.1237 711.078 1430.7973 717.2569 1435.71 717.2569 1455.68 718.1228 1458.2604 719.5514 1460.1075 Z" id="306"/>
<path d="M 506.9799 2069.5333 537.5088 2094.2251 537.9283 2141.7122 537.9423 2143.3015 487.4156 2143.5736 487.3373 2143.5785 487.2589 2143.582 487.1804 2143.5842 487.102 2143.5851 487.0235 2143.5846 486.945 2143.5828 486.8666 2143.5797 486.7883 2143.5753 486.71 2143.5696 486.6318 2143.5625 486.5538 2143.5541 486.4759 2143.5444 486.3982 2143.5334 486.3207 2143.5211 486.2434 2143.5074 486.1664 2143.4925 486.0896 2143.4763 486.0131 2143.4588 485.9369 2143.4399 485.8611 2143.4198 485.7856 2143.3985 485.7104 2143.3758 485.6357 2143.3519 485.5614 2143.3267 485.4875 2143.3003 485.414 2143.2727 485.3411 2143.2438 485.2686 2143.2136 485.1966 2143.1823 485.1252 2143.1497 485.0544 2143.116 484.9841 2143.081 484.9145 2143.0449 484.8454 2143.0076 484.777 2142.9692 484.7092 2142.9295 484.6422 2142.8888 484.5758 2142.8469 484.5101 2142.8039 484.4452 2142.7599 484.3811 2142.7147 484.3177 2142.6684 484.255 2142.6211 484.1932 2142.5727 484.1323 2142.5233 484.0721 2142.4729 484.0129 2142.4215 483.9545 2142.369 483.897 2142.3156 483.8404 2142.2613 483.7847 2142.206 483.73 2142.1497 483.6762 2142.0925 483.6234 2142.0345 483.5716 2141.9755 483.5208 2141.9157 483.471 2141.8551 483.4222 2141.7936 483.3745 2141.7313 483.3279 2141.6682 483.2823 2141.6043 483.2378 2141.5396 483.1944 2141.4743 483.1521 2141.4082 483.1109 2141.3413 483.0709 2141.2739 483.032 2141.2057 482.9943 2141.1369 482.9577 2141.0674 482.9223 2140.9974 482.8881 2140.9268 482.8551 2140.8556 482.8233 2140.7838 482.7927 2140.7116 482.7633 2140.6388 482.7352 2140.5655 482.7083 2140.4918 482.6827 2140.4176 482.6583 2140.343 482.6352 2140.268 482.6133 2140.1927 482.5927 2140.1169 482.5734 2140.0409 482.5554 2139.9645 482.5387 2139.8878 482.5233 2139.8108 482.5092 2139.7337 482.4963 2139.6562 482.4848 2139.5786 482.4746 2139.5008 482.4657 2139.4228 482.4582 2139.3447 482.4519 2139.2665 482.447 2139.1882 482.4434 2139.1098 482.4411 2139.0313 482.4402 2138.9528 482.2769 2094.8093 463.8806 2094.8093 463.8806 2083.5443 483.2942 2081.8503 495.8223 2073.1261 505.4792 2068.3195 506.9799 2069.5333 Z" id="320"/>
<path d="M 198.9825 2050.0327 211.3563 2053.7648 211.5983 2059.9662 215.8978 2059.9662 215.8978 2068.1054 220.8763 2074.0968 208.0224 2105.3517 170.5302 2087.6439 170.5302 2081.7413 151.8976 2081.7413 146.7851 2092.8654 127.2562 2081.0027 125.4508 2083.9749 91.8594 2060.4016 101.0996 2047.2345 113.5099 2057.5403 188.431 2056.7587 188.9121 2056.7361 189.419 2056.691 189.9235 2056.6248 190.4248 2056.5376 190.9223 2056.4295 191.4148 2056.3007 191.9013 2056.1516 192.3811 2055.9823 192.8535 2055.793 193.3177 2055.5842 193.7727 2055.3563 194.2176 2055.1096 194.6521 2054.8444 195.0751 2054.5613 195.4858 2054.261 195.8837 2053.9437 196.268 2053.61 196.6381 2053.2605 196.9931 2052.896 197.3327 2052.5171 197.6562 2052.1242 197.963 2051.7181 198.2526 2051.2996 198.5244 2050.8694 198.7781 2050.4282 198.9825 2050.0327 Z" id="288"/>
<path d="M 556.6722 2064.5792 556.6722 2078.0901 556.6722 2102.9085 562.7801 2102.9085 562.7801 2106.3013 569.3977 2106.3013 569.3977 2116.6334 591.0455 2116.6334 591.0455 2140.3282 578.7739 2141.8436 537.9283 2141.7122 537.5088 2094.2251 506.9799 2069.5333 515.2541 2066.3889 521.6764 2059.357 522.9081 2053.9951 533.6414 2053.9951 538.0403 2059.2691 556.6722 2064.5792 Z" id="322"/>
<path d="M 211.3563 2053.7648 198.9825 2050.0327 202.3104 2012.3339 198.9825 2006.9091 198.9825 2001.6592 207.9152 1995.1844 257.483 1995.1844 257.483 2050.9077 228.5831 2046.1828 217.5486 2055.6325 211.3563 2053.7648 Z" id="249"/>
<path d="M 373.2546 1202.5042 373.2546 1179.4226 390.8551 1176.6096 402.7323 1175.3293 402.7323 1181.1779 407.3374 1181.1779 407.3374 1204.5541 409.2798 1204.5541 409.2798 1219.6489 406.5775 1219.6489 406.5775 1250.452 342.2139 1250.452 342.2139 1229.9575 373.2546 1229.9575 373.2546 1202.5042 Z" id="86"/>
<path d="M 659.777 851.5634 659.777 862.6116 657.1938 864.23 654.4726 865.6036 651.6365 866.7209 648.7096 867.5724 645.7167 868.1507 642.6832 868.4511 605.0975 868.4511 605.0975 851.456 591.7273 851.456 591.7273 821.9431 668.9153 821.9431 668.9153 845.7041 658.5061 845.7041 658.5061 851.5634 659.777 851.5634 Z" id="197"/>
<path d="M 537.5363 1181.7499 537.5363 1205.6225 556.0363 1205.6225 556.0363 1211.9767 556.0363 1217.7515 544.4537 1217.7515 544.4537 1227.1019 572.2127 1227.1019 572.2127 1250.2095 506.2648 1250.2095 506.2648 1233.219 512.6829 1233.219 512.6829 1218.1493 510.0919 1218.1493 510.2376 1204.9477 510.1333 1176.7455 520.1786 1177.5357 537.5363 1181.7499 Z" id="192"/>
<path d="M 303.9512 2005.1082 303.7783 2031.962 319.2632 2031.962 319.2632 2015.398 324.5372 2015.398 324.5372 2004.781 329.5303 2000.5598 348.6068 2000.5598 348.6068 2024.3521 351.9355 2024.3521 351.9355 2042.7299 319.2632 2042.7299 303.9021 2044.9577 294.3634 2051.3937 290.0277 2060.1812 290.0277 2069.7114 276.7726 2069.8352 276.7363 2063.4764 274.5726 2060.9391 274.5726 2048.3889 276.9902 2048.3793 276.9326 2033.8637 282.9938 2033.8637 282.9938 2017.5839 277.641 2017.5839 278.8053 1995.0125 297.706 1995.4992 297.8137 1995.5469 297.9208 1995.5959 298.0274 1995.6461 298.1334 1995.6975 298.2389 1995.7501 298.3437 1995.8038 298.4479 1995.8588 298.5515 1995.9149 298.6545 1995.9722 298.7568 1996.0307 298.8584 1996.0903 298.9593 1996.1511 299.0596 1996.213 299.1591 1996.276 299.2579 1996.3401 299.356 1996.4054 299.4534 1996.4718 299.55 1996.5392 299.6458 1996.6078 299.7408 1996.6774 299.8351 1996.7481 299.9285 1996.8199 300.0211 1996.8927 300.1129 1996.9666 300.2039 1997.0415 300.294 1997.1174 300.3832 1997.1944 300.4715 1997.2723 300.559 1997.3513 300.6456 1997.4312 300.7312 1997.5121 300.816 1997.5939 300.8998 1997.6768 300.9826 1997.7605 301.0645 1997.8452 301.1455 1997.9308 301.2255 1998.0173 301.3044 1998.1048 301.3824 1998.1931 301.4594 1998.2823 301.5354 1998.3723 301.6103 1998.4632 301.6843 1998.555 301.7571 1998.6476 301.829 1998.741 301.8997 1998.8352 301.9694 1998.9302 302.038 1999.0259 302.1055 1999.1225 302.172 1999.2198 302.2373 1999.3179 302.3015 1999.4166 302.3646 1999.5162 302.4265 1999.6164 302.4873 1999.7173 302.547 1999.8189 302.6055 1999.9211 302.6629 2000.0241 302.7191 2000.1276 302.7741 2000.2318 302.8279 2000.3366 302.8806 2000.442 302.932 2000.548 302.9822 2000.6546 303.0313 2000.7617 303.0791 2000.8694 303.1257 2000.9776 303.1711 2001.0863 303.2152 2001.1956 303.2581 2001.3053 303.2997 2001.4155 303.3401 2001.5262 303.3793 2001.6373 303.4172 2001.7489 303.4538 2001.8609 303.4891 2001.9733 303.5232 2002.086 303.556 2002.1992 303.5875 2002.3127 303.6178 2002.4266 303.6467 2002.5408 303.6744 2002.6554 303.7007 2002.7702 303.7257 2002.8853 303.7495 2003.0007 303.7719 2003.1164 303.7931 2003.2323 303.8129 2003.3484 303.8314 2003.4648 303.8485 2003.5814 303.8644 2003.6981 303.8789 2003.815 303.8921 2003.9321 303.904 2004.0493 303.9146 2004.1667 303.9238 2004.2841 303.9317 2004.4017 303.9383 2004.5193 303.9435 2004.637 303.9474 2004.7548 303.95 2004.8726 303.9513 2004.9904 303.9512 2005.1082 Z" id="303"/>
<path d="M 375.3256 2091.0317 374.9303 2076.5493 432.2564 2073.2357 449.6618 2081.7315 449.6618 2093.2805 434.4883 2093.2805 434.4883 2104.7058 451.8784 2104.8911 451.7554 2116.4416 447.0114 2116.4416 382.3068 2116.4416 382.3068 2112.3684 394.9141 2112.6308 395.355 2091.4486 375.3256 2091.0317 Z" id="212"/>
<path d="M 384.1994 1506.9236 384.1994 1520.1117 386.6673 1520.1117 386.6673 1538.4941 384.7752 1538.4941 384.7752 1570.9314 359.8471 1570.9314 357.5204 1566.0324 347.0503 1566.0324 347.0503 1550.0438 351.8711 1550.0438 351.8711 1495.9558 370.0288 1492.6593 370.0288 1506.9236 384.1994 1506.9236 Z" id="232"/>
<path d="M 107.1739 853.2463 107.1739 883.4896 102.0789 886.5358 80.6182 874.2158 81.421 873.0534 70.693 865.6447 74.0454 860.7904 70.8219 858.6113 69.2154 860.9878 51.0538 848.7105 52.8887 846.0479 38.8202 836.353 34.0724 842.5732 32.1325 841.0925 29.8345 844.1032 24.7948 840.2566 24.4578 839.4821 24.1952 838.6793 24.0093 837.8553 23.9018 837.0176 23.8736 836.1734 23.9249 835.3303 24.0012 834.8297 24.1204 834.3376 24.2816 833.8576 24.4837 833.3934 24.7251 832.9483 25.004 832.5257 25.3183 832.1287 25.6657 831.7604 26.0437 831.4235 26.4493 831.1204 26.8795 830.8535 27.3312 830.6247 27.801 830.4357 47.5249 823.4767 48.6575 823.2922 49.801 823.1952 50.9485 823.1864 52.0933 823.2658 53.3791 823.4618 54.6428 823.769 55.875 824.1851 57.0664 824.7068 108.6606 850.0369 107.1739 853.2463 Z" id="230"/>
<path d="M 756.211 836.238 794.8869 868.4895 795.5235 868.9244 796.1192 869.414 796.6692 869.9543 797.1694 870.5411 797.6157 871.1698 798.0047 871.8355 798.3333 872.533 798.5989 873.2568 798.7996 874.0013 798.9336 874.7606 799 875.5288 798.9982 876.2998 798.9283 877.0676 798.7908 877.8263 798.5867 878.5698 796.3566 890.0079 796.1069 890.5909 795.8073 891.1499 795.4602 891.6807 795.0682 892.1792 794.6342 892.6417 794.1616 893.0646 793.654 893.4448 793.1152 893.7793 792.5492 894.0656 791.9606 894.3016 791.3535 894.4853 790.7328 894.6155 790.1032 894.6911 789.4693 894.7116 788.836 894.6769 788.2082 894.587 787.5906 894.4429 786.9879 894.2455 791.5327 888.2374 777.1322 881.5898 778.7541 878.0764 753.3701 866.3585 749.7701 874.1571 745.2861 873.3 740.7424 872.8578 736.1772 872.8341 731.6292 873.2293 727.1365 874.0399 712.5914 857.9503 738.0293 839.8405 740.8974 838.6095 743.8586 837.6232 746.8921 836.8887 749.9765 836.411 753.0901 836.1936 756.211 836.238 Z" id="65"/>
<path d="M 301.1652 1205.3008 303.5458 1205.3008 303.5458 1191.0942 320.1722 1188.3657 329.6655 1186.8653 329.6655 1192.9205 334.0098 1192.9205 334.0098 1204.6559 334.0098 1226.143 339.7064 1226.143 339.7064 1253.8854 301.1652 1253.8854 301.1652 1205.3008 Z" id="279"/>
<path d="M 121.2036 574.8939 104.0613 595.8901 33.9866 552.3689 32.3775 554.403 29.3487 552.0069 23.884 558.9149 17.1777 553.6098 16.9301 553.0744 16.7312 552.5191 16.5828 551.9482 16.4861 551.3664 16.4417 550.7782 16.4501 550.1884 16.5111 549.6017 16.6244 549.0229 16.7912 548.4499 17.0091 547.8943 17.2764 547.3608 17.5908 546.8536 17.9498 546.3769 18.3505 545.9346 18.7895 545.5304 19.2632 545.1675 19.7678 544.849 20.2992 544.5774 20.8529 544.355 38.6291 538.1333 39.4889 537.7923 40.3757 537.5294 41.2825 537.3466 42.2019 537.2453 43.1267 537.2265 44.0495 537.2902 46.0015 537.6014 47.9181 538.0849 49.7841 538.737 51.5847 539.5524 121.2036 574.8939 Z" id="4"/>
<path d="M 211.3192 48.3002 211.3192 58.6618 209.9897 58.6618 207.853 58.6618 207.853 63.6008 185.1645 63.6008 185.1645 58.6618 165.7844 58.6618 165.7844 63.6008 151.4178 63.6008 151.4178 58.6618 138.5415 58.6618 138.5415 48.3002 142.3211 48.3002 142.3211 34.3735 140.4661 34.3735 140.4661 31.5486 138.5415 31.5486 138.5415 24.2478 142.9321 24.2478 142.9321 20.3089 165.8958 20.3089 165.8958 37.8121 168.5999 37.8121 168.5999 24.2478 178.4591 24.2478 178.4591 36.3704 201.2779 36.3704 201.2779 48.3002 211.3192 48.3002 Z" id="174"/>
<path d="M 342.6372 1549.4757 342.6372 1573.2726 321.3374 1573.2726 321.3374 1569.0344 310.8543 1569.0344 310.8543 1561.1178 298.7327 1561.1178 298.163 1561.0929 297.5977 1561.0185 297.041 1560.895 296.4972 1560.7236 295.9704 1560.5054 295.4646 1560.2421 294.9837 1559.9357 294.5314 1559.5886 294.111 1559.2034 293.7257 1558.783 293.3786 1558.3306 293.0722 1557.8497 292.809 1557.3439 292.5908 1556.8171 292.4193 1556.2733 292.2959 1555.7166 292.2214 1555.1513 292.1966 1554.5816 292.1966 1511.6056 292.222 1511.0298 292.298 1510.4584 292.4241 1509.8959 292.5993 1509.3468 292.8222 1508.8152 293.091 1508.3053 293.4037 1507.8211 293.7579 1507.3663 294.1507 1506.9445 294.5792 1506.5589 295.04 1506.2126 295.5295 1505.9082 296.0439 1505.6482 296.5793 1505.4344 297.1313 1505.2687 297.6959 1505.1523 308.1529 1503.4722 308.1529 1510.0824 311.3203 1510.0824 311.3203 1543.2275 326.5807 1543.2275 326.5807 1539.6284 335.7345 1539.6284 335.7345 1549.4757 342.6372 1549.4757 Z" id="228"/>
<path d="M 162.1025 1146.7163 159.5527 1151.5604 159.5527 1156.4181 160.6135 1159.2444 83.4547 1159.3327 83.4547 1154.4799 83.4547 1135.3836 148.9487 1135.3836 162.1025 1146.7163 Z" id="57"/>
<path d="M 379.198 1763.4961 379.198 1747.3059 357.9689 1746.5327 357.9689 1720.6519 410.374 1721.2997 410.374 1726.1224 407.1148 1726.1224 407.1148 1747.3837 412.9333 1751.4047 412.9333 1754.6215 406.6564 1754.6215 406.6564 1760.412 379.198 1763.4961 Z" id="89"/>
<path d="M 606.2261 1518.6752 606.2261 1551.1312 557.0956 1567.7154 557.0956 1531.2257 558.796 1531.2257 587.7339 1531.2257 587.7339 1518.9404 606.2261 1518.6752 Z" id="213"/>
<path d="M 221.4704 1721.5575 221.4704 1772.2313 196.4926 1768.2914 195.6984 1768.1314 194.9205 1767.9048 194.1646 1767.6133 193.436 1767.2588 192.7401 1766.8441 192.0817 1766.3719 191.4655 1765.8458 190.8961 1765.2695 190.3775 1764.647 189.9133 1763.983 189.507 1763.282 189.1613 1762.5493 188.8789 1761.7899 188.6618 1761.0093 188.5114 1760.2132 188.4288 1759.4072 186.9272 1734.2896 200.7074 1734.2896 200.7074 1721.8864 190.0086 1721.8864 190.0086 1716.5839 221.4704 1716.5839 221.4704 1721.5575 Z" id="314"/>
<path d="M 294.5381 911.5188 294.5381 896.4223 312.9386 893.1647 322.7855 891.4215 322.7855 897.3191 326.3721 897.3191 326.3721 939.894 323.5829 939.894 323.5829 943.3968 293.5685 943.3968 293.5685 911.5188 294.5381 911.5188 Z M 312.9386 893.1647 294.5381 896.4223 294.5381 911.5188 312.9386 911.5188 312.9386 893.1647 Z" id="309"/>
<path d="M 736.9283 1114.8862 749.9984 1126.8423 748.6147 1129.1222 755.8741 1135.5521 746.6984 1147.7539 738.7027 1141.7411 731.2602 1151.638 724.9508 1146.8933 729.712 1140.5618 729.9603 1139.5593 730.1197 1138.5388 730.1891 1137.5084 730.1679 1136.4757 730.0563 1135.449 729.8552 1134.4359 729.5661 1133.4444 729.1912 1132.482 728.7334 1131.5562 728.1962 1130.674 727.5838 1129.8424 726.9009 1129.0675 726.1527 1128.3555 725.345 1127.7118 724.484 1127.1414 723.5763 1126.6486 722.629 1126.2373 721.6492 1125.9105 720.6445 1125.6709 719.6228 1125.5202 718.5917 1125.4596 717.5593 1125.4896 716.5335 1125.61 715.5223 1125.8198 714.5332 1126.1174 682.1607 1147.1197 682.1607 1141.8019 686.5163 1141.8019 686.5163 1116.9267 702.611 1116.9267 702.611 1110.1521 711.7608 1110.1521 711.7608 1114.8862 736.9283 1114.8862 Z" id="256"/>
<path d="M 329.3869 1749.3942 319.7921 1749.3942 319.7921 1767.9298 298.614 1770.3162 298.614 1723.2091 298.6383 1722.6529 298.711 1722.101 298.8315 1721.5575 298.9989 1721.0265 299.2119 1720.5122 299.469 1720.0184 299.7681 1719.5488 300.107 1719.1071 300.4831 1718.6967 300.8936 1718.3206 301.3353 1717.9817 301.8048 1717.6825 302.2986 1717.4255 302.813 1717.2124 303.3439 1717.045 303.8874 1716.9245 304.4394 1716.8519 304.9956 1716.8276 324.0932 1716.8276 324.0932 1724.7623 329.3869 1724.7623 329.3869 1749.3942 Z" id="96"/>
<path d="M 456.2106 1757.0783 437.2566 1758.5122 417.231 1760.0271 417.231 1740.4768 417.231 1729.557 422.3112 1729.557 422.3112 1727.4035 426.0833 1727.4035 426.0833 1717.019 433.7805 1717.019 433.7805 1722.865 450.2518 1722.865 457.8104 1738.4257 456.2106 1741.0903 456.2106 1757.0783 Z" id="293"/>
<path d="M 385.583 882.3037 385.583 908.8656 401.8114 908.8656 401.8114 933.3154 385.1186 933.3154 367.1911 937.0876 367.1911 885.143 385.583 882.3037 Z" id="1"/>
<path d="M 535.1982 1461.8297 535.1982 1474.6817 515.7364 1469.5406 515.7364 1445.5645 505.5809 1445.5645 496.921 1444.1524 486.4475 1444.1524 486.4475 1431.4455 484.7445 1431.4455 484.7445 1426.9082 515.7364 1426.9082 524.7247 1426.9082 524.7247 1432.0102 534.0187 1432.0102 534.0187 1461.8297 535.1982 1461.8297 Z" id="308"/>
<path d="M 199.7695 1475.5447 180.225 1471.0662 175.6194 1465.7165 175.6194 1446.8072 173.8762 1440.2141 188.4414 1440.2141 188.4414 1426.7785 180.1013 1426.7785 180.1013 1421.0561 207.364 1421.0561 207.364 1445.0659 199.7695 1445.0659 199.7695 1475.5447 Z" id="237"/>
<path d="M 579.5115 217.4978 579.5115 244.1603 540.1177 257.5439 540.1177 245.5904 545.6108 245.5904 545.6108 237.5916 542.4719 237.5916 542.4719 217.4978 579.5115 217.4978 Z" id="318"/>
<path d="M 221.6291 937.0919 221.6291 903.6481 224.8737 904.2295 226.5705 904.4971 228.277 904.6936 229.9902 904.8186 231.643 904.8759 233.2968 904.8759 234.9496 904.8186 241.0456 904.3771 247.1186 903.688 253.1585 902.7524 253.9911 904.9927 253.9911 908.4003 248.7876 908.4003 248.7876 911.003 239.9904 911.003 239.9904 923.6423 248.5944 923.6423 248.5944 920.4056 257.9869 920.4056 257.9869 923.6423 261.1343 923.6423 261.1343 946.1605 256.0358 946.1605 221.6291 937.0919 Z" id="111"/>
<path d="M 199.7695 1475.5447 199.7695 1445.0659 207.364 1445.0659 207.364 1421.0561 224.0451 1421.0561 224.0451 1479.401 199.7695 1475.5447 Z" id="312"/>
<path d="M 268.6071 531.9292 268.6071 581.6926 257.0772 583.5814 246.4883 584.1738 246.4883 555.7909 242.34 555.7909 242.34 546.58 247.2317 546.58 247.2317 536.8971 242.2214 536.8971 242.3705 531.9292 268.6071 531.9292 Z" id="179"/>
<path d="M 299.4304 1473.4657 299.4304 1456.5904 277.938 1456.5904 277.938 1428.8052 281.4687 1422.7455 306.7992 1420.7432 306.7992 1457.6515 312.019 1457.6515 312.019 1464.9386 308.4108 1464.9386 309.2549 1473.4657 299.4304 1473.4657 Z" id="19"/>
<path d="M 538.233 1112.8017 538.233 1155.5349 519.4827 1151.8796 510.6416 1150.156 510.6416 1137.0139 510.8724 1117.5568 508.7818 1117.5568 508.7818 1112.8017 538.233 1112.8017 Z" id="6"/>
<path d="M 409.0912 297.9618 409.0912 275.3111 439.345 270.1663 440.0317 270.2207 440.7109 270.3349 441.3776 270.508 442.0266 270.7387 442.653 271.0251 443.2519 271.3652 443.8189 271.7563 444.3496 272.1954 444.8399 272.6792 445.286 273.2039 445.6847 273.7656 446.0327 274.36 446.3275 274.9825 446.3275 290.1041 436.6833 290.1041 436.6833 310.9973 418.6242 310.9973 418.3855 298.023 409.0912 297.9618 Z" id="224"/>
<path d="M 604.9647 905.7781 604.9647 942.6052 573.88 952.2103 573.88 947.7647 572.8598 947.7647 572.8598 926.4203 586.5712 926.4203 586.5712 901.2216 604.9647 905.7781 Z" id="166"/>
<path d="M 553.5057 1720.729 553.5057 1766.6874 534.1588 1763.32 534.1588 1739.1227 524.0154 1740.1845 524.0154 1726.7151 521.1398 1726.7151 521.1398 1720.729 553.5057 1720.729 Z" id="183"/>
<path d="M 493.4111 821.7011 493.4111 853.952 477.0043 851.4352 467.4578 850.4669 457.8624 850.4782 457.6093 829.3243 470.8519 818.2684 477.0043 818.2684 477.0043 821.7011 493.4111 821.7011 Z" id="118"/>
<path d="M 423.5073 232.0735 408.9874 232.0735 408.9874 250.5486 391.6051 253.793 391.6051 232.4689 384.7431 232.4689 384.7431 226.9954 379.237 226.9954 379.237 218.0128 433.3811 218.0128 433.3811 228.6681 423.5073 228.6681 423.5073 232.0735 Z" id="332"/>
<path d="M 224.3003 1525.1451 224.3003 1540.8318 219.0161 1540.8318 219.0161 1546.5653 207.0887 1546.5653 202.1825 1546.5653 188.6697 1549.3563 189.0469 1507.1862 207.0887 1516.5405 214.1141 1516.5405 214.1141 1525.1451 224.3003 1525.1451 Z" id="238"/>
<path d="M 375.34 1113.2042 375.34 1131.41 353.368 1131.41 353.368 1152.6954 336.6422 1152.6954 337.2826 1113.2042 375.34 1113.2042 Z" id="294"/>
<path d="M 495.2166 1756.3692 495.2166 1738.4257 475.1042 1738.4257 475.1042 1732.4873 494.4639 1717.1643 513.6619 1717.1643 513.6619 1759.5857 495.2166 1756.3692 Z" id="161"/>
<path d="M 574.8463 1758.1705 574.8463 1770.4019 553.5057 1766.6874 553.5057 1720.729 574.8463 1720.729 574.8463 1758.1705 Z" id="204"/>
<path d="M 211.1436 1126.1715 211.1436 1157.113 203.9353 1155.3227 193.1192 1152.6364 188.298 1151.439 178.555 1147.1238 178.5722 1137.1247 183.72 1137.1247 183.72 1120.5635 180.0136 1118.9177 180.0136 1112.9515 193.192 1112.9515 196.8984 1116.5518 196.8984 1126.0153 211.1436 1126.1715 Z" id="285"/>
<path d="M 531.6635 888.302 531.6635 918.1237 501.2628 918.1237 501.2628 888.8867 503.5471 888.8867 503.5471 882.1416 504.9492 882.0803 506.3507 882.1534 507.7388 882.3603 509.1008 882.699 531.6635 888.302 Z" id="280"/>
<path d="M 285.1213 1205.3008 285.1213 1241.0059 276.8818 1241.0059 269.1094 1248.4085 264.7521 1248.4085 257.553 1240.1747 250.5433 1240.1747 250.5433 1232.2249 264.6573 1232.2249 266.9798 1222.2678 269.682 1222.2678 271.2603 1212.4669 268.7039 1212.4669 268.7039 1201.9414 272.1291 1201.9414 272.1291 1194.2439 285.1213 1194.281 285.1213 1205.3008 Z" id="260"/>
<path d="M 481.7155 292.1451 481.7032 272.7596 510.5231 275.9554 510.5231 285.2975 513.771 285.2975 513.771 306.2836 481.7246 306.2836 481.7155 292.1451 Z M 510.5231 275.9554 501.5631 274.9619 501.5631 285.2975 510.5231 285.2975 510.5231 275.9554 Z" id="223"/>
<path d="M 334.6551 1806.2549 334.6551 1831.6312 328.2302 1847.5293 321.9074 1847.5293 319.9699 1841.8223 310.9951 1841.8223 310.0774 1802.9939 330.0656 1800.5479 330.0656 1806.2549 334.6551 1806.2549 Z" id="330"/>
<path d="M 319.6021 1139.4115 319.589 1157.3659 300.7666 1158.9393 300.7666 1144.6396 300.7666 1137.9602 304.1797 1137.9602 304.1797 1117.4183 308.2366 1113.2198 319.6637 1113.2198 319.6637 1117.1973 328.9082 1117.1427 328.9682 1139.4115 319.6021 1139.4115 Z" id="155"/>
<path d="M 463.6396 1192.2076 463.6396 1205.7014 448.8604 1205.7014 448.8604 1250.458 448.8719 1250.5287 448.8821 1250.5995 448.891 1250.6706 448.8985 1250.7418 448.9048 1250.8131 448.9097 1250.8845 448.9134 1250.956 448.9157 1251.0275 448.9167 1251.0991 448.9164 1251.1707 448.9148 1251.2422 448.9118 1251.3138 448.9076 1251.3852 448.902 1251.4566 448.8951 1251.5278 448.8869 1251.5989 448.8774 1251.6699 448.8666 1251.7407 448.8545 1251.8112 448.8411 1251.8815 448.8265 1251.9516 448.8105 1252.0214 448.7932 1252.0909 448.7747 1252.16 448.7549 1252.2288 448.7339 1252.2972 448.7116 1252.3652 448.688 1252.4328 448.6632 1252.5 448.6372 1252.5667 448.61 1252.6329 448.5815 1252.6986 448.5519 1252.7637 448.521 1252.8283 448.489 1252.8923 448.4558 1252.9557 448.4214 1253.0185 448.3859 1253.0807 448.3493 1253.1422 448.3115 1253.203 448.2726 1253.2631 448.2327 1253.3225 448.1916 1253.3811 448.1495 1253.439 448.1063 1253.4961 448.062 1253.5524 448.0168 1253.6078 447.9705 1253.6624 447.9232 1253.7162 447.875 1253.7691 447.8258 1253.8211 447.7756 1253.8721 447.7245 1253.9223 447.6725 1253.9715 447.6196 1254.0197 447.5659 1254.0669 447.5112 1254.1132 447.4557 1254.1584 447.3995 1254.2027 447.3424 1254.2458 447.2845 1254.2879 447.2258 1254.329 447.1664 1254.3689 447.1063 1254.4078 447.0455 1254.4455 446.984 1254.4822 446.9218 1254.5177 446.859 1254.552 446.7956 1254.5852 446.7315 1254.6172 446.6669 1254.648 446.6018 1254.6776 446.5361 1254.7061 446.4699 1254.7333 446.4032 1254.7593 446.336 1254.7841 446.2684 1254.8076 446.2004 1254.8299 446.132 1254.8509 446.0632 1254.8706 445.994 1254.8891 445.9245 1254.9064 445.8547 1254.9223 445.7847 1254.937 445.7143 1254.9503 445.6438 1254.9624 445.573 1254.9732 445.5021 1254.9827 445.4309 1254.9908 445.3597 1254.9977 445.2883 1255.0032 445.2169 1255.0075 445.1453 1255.0104 445.0738 1255.012 434.4394 1255.1525 434.4917 1218.2062 437.262 1218.2062 441.361 1196.8043 447.4108 1192.2076 448.8604 1192.2076 463.6396 1192.2076 Z" id="298"/>
<path d="M 592.9218 1244.8696 592.9218 1222.2156 611.7797 1222.2156 611.7797 1199.9572 624.3517 1201.712 631.0763 1201.8888 630.5582 1221.5919 624.6176 1221.5919 624.6176 1233.4626 592.9218 1244.8696 Z" id="310"/>
<path d="M 396.6993 1788.8134 396.6993 1846.3525 377.7138 1846.3525 377.7138 1842.9313 381.4485 1842.9313 381.4485 1816.7824 379.4821 1816.7824 379.4821 1792.5227 396.6993 1788.8134 Z" id="231"/>
<path d="M 247.429 1205.9626 246.7475 1218.7038 263.2269 1218.7038 262.1161 1230.6971 231.2712 1230.6971 227.5231 1227.8118 227.4804 1196.7923 236.2776 1199.392 246.8095 1199.392 261.6781 1196.2352 261.6781 1203.0439 257.0936 1202.9201 257.0114 1205.9626 247.429 1205.9626 Z" id="215"/>
<path d="M 404.8206 1463.3569 386.5253 1465.1 386.5253 1445.911 388.596 1445.911 388.596 1433.5562 391.9454 1433.5562 391.9454 1431.4737 395.294 1431.4737 395.294 1427.3828 401.993 1427.3828 401.993 1422.3255 405.4905 1422.3255 405.4905 1428.6473 419.1846 1428.6473 425.8835 1444.9766 424.6918 1444.9766 415.836 1444.9766 404.8206 1444.9766 404.8206 1463.3569 Z" id="319"/>
<path d="M 368.1071 1466.1745 350.7718 1467.8941 350.7718 1426.4519 380.1827 1427.8155 381.3979 1431.8461 377.8986 1431.8461 377.8986 1445.054 368.1071 1445.054 368.1071 1466.1745 Z" id="167"/>
<path d="M 441.7955 1508.4857 441.7955 1523.3525 423.2789 1523.3525 423.2789 1559.2123 424.8216 1559.2123 424.8216 1570.8559 421.115 1575.0299 410.7102 1575.0299 411.01 1537.2808 415.3098 1537.2808 421.0462 1513.8555 424.8234 1511.9947 432.6443 1511.9947 441.7955 1508.4857 Z" id="257"/>
<path d="M 332.5383 1426.4245 332.5383 1469.7027 313.9468 1471.5469 313.9468 1426.3996 332.5383 1426.4245 Z" id="143"/>
<path d="M 136.5056 263.3268 114.2521 249.9265 118.429 244.3257 118.429 215.018 121.7764 215.2867 125.0849 215.8618 128.3266 216.7384 131.474 217.9092 134.5006 219.3641 137.3807 221.091 140.09 223.0752 142.6055 225.2998 136.5056 234.8758 136.5056 263.3268 Z" id="157"/>
<path d="M 357.9689 1746.5327 357.9689 1765.8806 337.7246 1767.7179 337.7246 1756.0605 342.013 1756.0605 342.013 1726.0572 338.5786 1726.0572 338.5786 1720.6519 357.9689 1720.6519 357.9689 1746.5327 Z" id="45"/>
<path d="M 317.7092 246.916 317.7092 271.0448 311.5049 271.0042 305.3105 270.6521 299.1416 269.9895 299.1416 242.0872 292.6246 242.0872 292.6246 230.9046 299.2631 230.9046 299.2631 228.5038 314.0998 228.5038 314.0998 246.916 317.7092 246.916 Z" id="283"/>
<path d="M 556.7908 1149.4397 556.7908 1159.0259 538.233 1155.5349 538.233 1112.8017 547.3226 1112.8017 547.3226 1117.5811 556.7908 1117.5811 556.7908 1149.4397 Z" id="217"/>
<path d="M 496.2279 1826.5887 496.2279 1796.3622 515.8444 1789.6818 515.8444 1796.1432 519.6803 1796.1432 519.6803 1826.5887 496.2279 1826.5887 Z" id="92"/>
<path d="M 350.7718 1426.4519 350.7718 1467.8941 332.5383 1469.7027 332.5383 1426.4245 350.7056 1426.4488 350.7718 1426.4519 Z" id="131"/>
<path d="M 228.6906 1112.3237 228.6906 1160.1255 211.1436 1157.113 211.1436 1126.1715 214.302 1126.0926 214.302 1112.3237 228.6906 1112.3237 Z" id="39"/>
<path d="M 221.4704 1772.2313 221.4704 1721.5575 238.3772 1721.5575 236.2381 1727.1688 236.2381 1773.7945 221.4704 1772.2313 Z" id="246"/>
<path d="M 484.0295 1212.1431 484.0295 1182.4839 494.4777 1178.8081 502.381 1177.1415 502.381 1183.3382 505.1543 1183.3382 505.1543 1216.2055 484.0295 1216.2055 484.0295 1212.1431 Z" id="141"/>
<path d="M 392.6454 1150.727 392.6454 1131.41 375.34 1131.41 375.34 1113.2042 404.1455 1112.8273 404.1455 1137.3932 407.1844 1137.3932 407.1844 1144.0177 403.43 1144.0177 403.43 1150.0704 392.6454 1150.727 Z" id="270"/>
<path d="M 550.9128 852.9123 550.9128 863.8895 532.2331 860.3601 532.2331 821.7011 550.9128 821.7011 550.9128 852.9123 Z" id="9"/>
<path d="M 228.6906 1160.1255 228.6906 1112.3237 245.9718 1112.3237 245.9718 1123.6113 243.1666 1123.6113 243.1666 1162.6108 228.6906 1160.1255 Z" id="284"/>
<path d="M 312.8822 827.0807 312.8822 862.581 293.4736 864.6132 293.4736 850.2833 293.4736 837.2739 298.7584 837.2739 298.7584 821.8248 312.8822 821.8248 312.8822 827.0807 Z" id="73"/>
<path d="M 460.5542 1499.1974 479.1066 1492.2025 479.1066 1499.4584 483.1303 1499.4584 483.1303 1528.2191 460.5542 1528.2191 460.5542 1499.1974 Z" id="148"/>
<path d="M 593.2024 618.0349 593.2024 635.2509 586.196 635.2509 561.9826 641.1422 561.9826 616.2161 566.523 616.2161 568.0142 611.8701 577.1446 613.8356 593.2024 618.0349 Z" id="78"/>
<path d="M 581.4017 2044.6746 576.5565 2052.6477 537.9123 2045.243 537.9123 2032.7438 581.4017 2032.7438 581.4017 2044.6746 Z" id="244"/>
<path d="M 431.6368 553.6721 393.9381 553.6721 393.9381 532.0288 417.6102 532.0288 431.6368 549.4587 431.6368 553.6721 Z" id="176"/>
<path d="M 674.2157 1179.8938 679.9679 1188.3776 658.1157 1203.194 663.5329 1213.9203 649.7458 1222.6778 647.0979 1215.4711 641.3457 1215.4711 641.3457 1196.4053 646.2762 1196.4053 674.2157 1179.8938 Z" id="317"/>
<path d="M 154.5525 274.1939 154.5525 244.0502 157.5107 238.7852 176.4964 248.9029 173.9045 253.7666 173.9045 281.6454 165.3831 276.5736 163.5682 279.6228 154.5525 274.1939 Z" id="62"/>
<path d="M 461.8548 1461.6901 461.8548 1425.493 479.6946 1425.4198 479.6946 1465.1099 461.8548 1461.6901 Z" id="116"/>
<path d="M 154.5525 274.1939 136.5056 263.3268 136.5056 234.8758 142.6055 225.2998 143.4974 227.1722 144.5483 228.9602 145.7504 230.6502 147.0946 232.2297 148.5706 233.6866 150.1675 235.0099 151.8732 236.1898 153.6747 237.2172 155.5586 238.0846 157.5107 238.7852 154.5525 244.0502 154.5525 274.1939 Z" id="75"/>
<path d="M 606.2261 1518.6752 612.5958 1518.1254 619.5473 1516.2066 623.5798 1522.8462 628.8439 1519.3631 637.7538 1534.0621 612.3486 1547.8165 612.3486 1545.2305 606.2261 1545.2305 606.2261 1518.6752 Z" id="20"/>
<path d="M 441.8035 1798.9733 441.8035 1824.7049 438.3317 1824.7049 438.3317 1818.0919 423.524 1818.0919 423.524 1813.6395 417.0371 1813.6395 417.0371 1786.0091 423.655 1787.973 441.8035 1798.9733 Z" id="329"/>
<path d="M 317.7092 271.0448 317.7092 246.916 317.7092 241.5723 340.5878 241.5723 340.5878 266.6484 335.0193 268.4341 329.3254 269.7673 323.543 270.6394 317.7092 271.0448 Z" id="130"/>
<path d="M 399.0886 1165.0576 396.6503 1169.9299 350.5254 1177.1368 347.5791 1173.6856 347.5791 1169.7269 349.7127 1163.2305 395.7359 1158.3583 399.0886 1161.5049 399.0886 1165.0576 Z" id="12"/>
<path d="M 481.7032 272.7596 481.7155 292.1451 478.2922 292.1451 478.2922 300.8352 467.0034 300.8352 467.0034 293.9797 452.6575 293.9797 452.6575 287.8142 460.7999 273.8225 461.1044 273.4123 461.4426 273.0294 461.8121 272.6765 462.2101 272.3562 462.6339 272.0708 463.0803 271.8224 463.5463 271.6128 464.0283 271.4434 464.5229 271.3155 465.0266 271.2301 481.7032 272.7596 Z" id="266"/>
<path d="M 533.6058 1503.5184 533.6058 1530.9594 542.5592 1532.3761 542.5592 1534.5543 533.5491 1534.5543 533.5491 1536.7329 516.4445 1536.7329 516.4445 1500.89 533.6058 1503.5184 Z" id="172"/>
<path d="M 477.2178 917.3659 477.2178 889.0192 480.1107 887.3319 483.1354 885.8945 486.2706 884.7173 489.4939 883.8086 492.7823 883.1748 496.1124 882.8205 496.1124 917.3659 477.2178 917.3659 Z" id="180"/>
<path d="M 550.357 892.9441 550.357 923.1627 531.6635 923.1627 531.6635 888.302 550.357 892.9441 Z" id="140"/>
<path d="M 623.2589 906.5979 623.2589 935.2611 604.9647 942.6052 604.9647 905.7781 611.0243 906.6725 617.1435 906.9467 623.2589 906.5979 Z" id="31"/>
<path d="M 428.2257 1112.4704 428.1853 1147.3825 409.4572 1148.8701 409.4572 1131.5402 412.2059 1131.5402 412.2059 1119.4187 416.1495 1116.7498 417.9936 1116.7498 417.9936 1112.5141 428.2257 1112.4704 Z" id="64"/>
<path d="M 447.3279 1129.0117 447.3279 1145.8169 428.1853 1147.3825 428.2257 1112.4704 428.2302 1108.5928 432.7042 1108.5928 432.7042 1114.9553 440.4191 1114.9553 447.3279 1129.0117 Z" id="26"/>
<path d="M 208.7482 294.512 195.8502 294.512 191.0427 291.7663 191.0427 264.0109 194.3166 257.5747 209.3502 265.2218 208.7482 266.1545 208.7482 294.512 Z" id="173"/>
<path d="M 482.9619 1145.0338 482.9619 1116.211 482.9619 1112.8718 495.9618 1112.8718 495.9618 1113.992 498.3111 1113.992 498.3111 1118.6841 499.8835 1118.6841 499.8835 1145.2782 501.9 1145.2782 501.9 1149.5091 482.9619 1145.0338 Z" id="127"/>
<path d="M 611.836 555.8938 611.836 583.8278 593.7402 583.8278 593.7402 551.5742 607.795 551.5742 607.795 555.8938 611.836 555.8938 Z" id="32"/>
<path d="M 148.838 895.9197 148.838 869.2768 167.7596 878.7297 167.7596 908.0948 148.838 899.2714 148.838 895.9197 Z" id="28"/>
<path d="M 221.6291 903.6481 221.6291 937.0919 208.5165 933.0778 208.5165 929.1775 207.0264 929.1775 207.0264 916.2841 203.2712 916.2841 203.2712 896.1727 204.764 896.899 207.2465 898.1244 209.7149 899.3781 212.1689 900.6599 214.4225 901.7258 216.7633 902.5835 219.1721 903.226 221.6291 903.6481 Z" id="34"/>
<path d="M 539.5554 604.7856 539.5554 632.2871 536.355 632.2871 536.355 634.1934 527.2042 634.1934 527.2042 628.2685 521.1263 628.2685 521.1263 600.0345 539.5554 604.7856 Z" id="241"/>
<path d="M 641.5411 926.9065 641.5411 901.7297 669.1672 884.9502 670.1096 886.5017 668.9677 887.1952 668.9677 891.6395 671.5939 895.8168 655.0209 907.4827 655.0209 919.4398 641.5411 926.9065 Z" id="142"/>
<path d="M 432.2127 1184.8486 432.2127 1205.9476 428.1938 1205.9476 428.1938 1203.5384 417.604 1203.5384 417.604 1199.8681 409.4542 1199.8681 409.4542 1173.4629 432.2127 1184.8486 Z" id="119"/>
<path d="M 708.0556 831.8428 679.4115 850.4234 677.6569 847.7185 681.1784 847.7185 681.0067 821.9431 710.5206 821.9431 710.5206 825.6277 710.5312 826.3177 710.4816 827.0061 710.3722 827.6874 710.2037 828.3567 709.9775 829.0087 709.6953 829.6385 709.3593 830.2412 708.9719 830.8124 708.5363 831.3476 708.0556 831.8428 Z" id="88"/>
<path d="M 118.429 215.018 118.429 244.3257 115.7088 247.9732 99.4553 236.6908 99.4553 215.018 118.429 215.018 Z" id="151"/>
<path d="M 466.9145 625.2595 466.9145 601.054 469.4124 599.855 471.9151 598.6662 474.4226 597.4876 476.064 596.806 477.7586 596.2704 479.4936 595.8849 481.2555 595.6524 483.0311 595.5747 485.7808 595.5747 485.7808 625.2595 466.9145 625.2595 Z" id="85"/>
<path d="M 496.2279 1796.3622 496.2279 1826.5887 475.5158 1826.5887 475.5158 1820.5654 475.5158 1807.2142 496.2279 1796.3622 Z" id="94"/>
<path d="M 95.5329 199.5349 64.7103 214.9355 58.373 214.9355 58.373 201.6939 68.8152 201.6939 68.8152 188.6682 95.749 195.7927 95.9103 195.8431 96.0665 195.9075 96.2164 195.9855 96.3589 196.0764 96.4928 196.1795 96.617 196.294 96.7307 196.4191 96.8329 196.5537 96.9228 196.6968 96.9997 196.8472 97.063 197.0039 97.1123 197.1655 97.1471 197.3309 97.1672 197.4987 97.1724 197.6676 97.1626 197.8363 97.138 198.0035 97.0988 198.1678 97.0452 198.3281 96.9776 198.483 96.8967 198.6313 96.803 198.772 96.6972 198.9037 96.5802 199.0257 96.4529 199.1368 96.3163 199.2363 96.1714 199.3233 96.0195 199.3972 95.8616 199.4574 95.699 199.5034 95.5329 199.5349 Z" id="239"/>
<path d="M 539.4649 580.2382 539.4649 555.3945 553.0793 555.3945 553.0793 565.9052 562.2187 565.9052 562.2187 580.1695 558.5946 583.9515 539.4649 580.2382 Z" id="58"/>
<path d="M 484.0295 1182.4839 484.0295 1212.1431 463.6396 1212.1431 463.6396 1205.7014 463.6396 1192.2076 484.0295 1182.4839 Z" id="21"/>
<path d="M 539.5554 632.2871 539.5554 604.7856 558.3122 609.321 558.3122 634.1934 542.5379 634.1934 542.5379 632.2871 539.5554 632.2871 Z" id="24"/>
<path d="M 460.5542 1499.1974 460.5542 1530.6679 441.7955 1530.6679 441.7955 1523.3525 441.7955 1508.4857 460.5542 1499.1974 Z" id="154"/>
<path d="M 517.4607 821.7011 517.4607 858.1146 504.1707 856.0943 504.1707 848.9693 499.5987 848.9693 499.5987 842.5889 504.1707 842.5889 504.1707 821.7011 517.4607 821.7011 Z" id="70"/>
<path d="M 587.7339 1518.9404 587.7339 1531.2257 558.796 1531.2257 558.796 1519.7077 555.2462 1519.7077 555.2462 1516.0109 559.6933 1516.0109 559.6933 1509.9989 569.9898 1513.2822 587.7339 1518.9404 Z" id="263"/>
<path d="M 630.1126 560.0876 630.1126 582.6978 626.2862 583.4643 624.9317 583.666 623.5677 583.7873 622.1989 583.8278 611.836 583.8278 611.836 555.8938 615.3675 555.8938 615.3675 555.2741 625.7779 555.2741 625.7779 560.0876 630.1126 560.0876 Z" id="90"/>
<path d="M 713.6474 1176.5963 701.8395 1162.8185 712.9579 1156.3601 721.4906 1149.6434 727.1951 1155.2741 743.7213 1163.9385 728.7223 1167.0991 713.6474 1176.5963 Z" id="324"/>
<path d="M 461.8548 1425.493 461.8548 1461.6901 453.5631 1460.1006 444.3827 1460.1006 442.6204 1445.7416 446.7313 1444.9346 446.7313 1437.4514 461.8548 1425.493 Z" id="7"/>
<path d="M 623.2589 906.5979 629.4937 905.5384 635.605 903.9111 641.5411 901.7297 641.5411 926.9065 623.2589 935.2611 623.2589 906.5979 Z" id="206"/>
<path d="M 521.1263 600.0345 521.1263 628.2685 515.1852 628.2685 515.1852 623.0148 503.0802 623.0148 503.0802 596.5109 513.3042 597.9552 521.1263 600.0345 Z" id="191"/>
<path d="M 99.4553 215.018 99.4553 236.6908 92.8165 232.6353 89.4907 236.73 82.8214 232.0953 61.8833 232.0953 61.8833 226.9127 95.7049 215.018 99.4553 215.018 Z" id="210"/>
<path d="M 148.714 842.4559 148.7903 821.5829 167.5473 821.5829 167.5473 851.6247 148.714 842.4559 Z" id="59"/>
<path d="M 424.0578 891.6329 424.0578 908.8547 410.3261 908.8547 410.3261 905.3672 403.5703 905.3672 403.5703 880.7335 405.4705 880.613 406.0559 880.6262 406.638 880.6901 407.2123 880.8042 407.7746 880.9677 408.3206 881.1794 408.8461 881.4376 422.1904 888.729 422.4402 888.8565 422.678 889.0054 422.9017 889.1747 423.1097 889.3629 423.3003 889.5686 423.4722 889.7903 423.6239 890.0263 423.7543 890.2746 423.8625 890.5335 423.9474 890.8008 424.0086 891.0746 424.0455 891.3526 424.0578 891.6329 Z" id="17"/>
<path d="M 432.5052 852.2038 432.5052 835.1704 422.3181 835.1704 413.086 835.1704 413.086 823.2735 423.0817 823.2735 423.0817 818.4063 427.4074 818.4063 441.961 835.6029 441.961 851.3154 432.5052 852.2038 Z" id="176"/>
<path d="M 260.8858 1459.5924 260.8858 1476.4677 251.6641 1478.615 234.0099 1478.615 234.0099 1464.0412 241.8395 1464.0412 241.8395 1459.5924 251.6641 1459.5924 260.8858 1459.5924 Z" id="139"/>
<path d="M 699.0178 889.2491 686.5762 874.1352 709.3818 859.8328 712.0796 863.5073 705.4109 869.9261 708.4031 873.0348 715.0996 866.5894 722.8809 874.8009 717.1837 877.188 713.03 879.0498 709.0776 881.3075 705.364 883.9397 701.9246 886.9212 699.0178 889.2491 Z" id="205"/>
<path d="M 477.2178 889.0192 477.2178 917.3659 457.9979 917.3659 457.9979 897.5009 477.2178 889.0192 Z" id="321"/>
<path d="M 375.34 1131.41 375.34 1151.7807 353.368 1152.6954 353.368 1131.41 375.34 1131.41 Z" id="121"/>
<path d="M 191.0427 291.7663 177.8007 284.4405 177.8282 260.993 182.1634 251.9229 194.3166 257.5747 191.0427 264.0109 191.0427 291.7663 Z" id="101"/>
<path d="M 550.357 892.9441 567.8075 897.2776 567.8075 920.9542 550.357 920.9542 550.357 892.9441 Z" id="295"/>
<path d="M 203.2712 896.1727 203.2712 916.2841 185.0217 916.2841 185.0217 887.2935 203.2712 896.1727 Z" id="102"/>
<path d="M 148.7903 821.5829 148.714 842.4559 106.0318 821.5829 148.7903 821.5829 Z" id="171"/>
<path d="M 422.3181 835.1704 422.3181 853.1608 403.4935 854.9293 403.4935 825.977 413.086 825.977 413.086 835.1704 422.3181 835.1704 Z" id="2"/>
<path d="M 630.1126 582.6978 630.1126 560.0876 646.7567 560.0876 646.7567 567.1075 651.7975 567.1075 651.7975 566.1899 655.8645 566.1899 659.1181 571.2487 656.302 573.0543 653.4417 574.7891 650.539 576.452 647.4772 578.0035 644.3044 579.3132 641.0397 580.3732 637.7028 581.1773 630.1126 582.6978 Z" id="193"/>
<path d="M 276.5888 850.2833 276.5888 866.3181 255.872 870.3586 251.0244 870.3586 251.0244 855.9301 257.6321 855.9301 257.6321 850.2833 276.5888 850.2833 Z" id="91"/>
<path d="M 303.8266 634.7869 303.8266 622.3356 298.7288 622.3356 298.7288 606.7561 311.9081 604.8283 313.0931 612.93 316.9319 612.93 316.9319 632.9134 312.2165 634.7869 303.8266 634.7869 Z" id="77"/>
<path d="M 298.7288 606.7561 298.7288 622.3356 303.8266 622.3356 303.8266 634.7869 285.0275 634.7869 285.5495 608.6838 298.7288 606.7561 Z" id="126"/>
<path d="M 185.0217 887.2935 185.0217 916.2841 171.3261 916.2841 171.3261 887.8322 173.25 887.8322 175.8371 883.0548 185.0217 887.2935 Z" id="80"/>
<path d="M 367.8838 836.2621 367.8838 858.2086 349.3495 859.5249 349.3495 836.2621 367.8838 836.2621 Z" id="25"/>
<path d="M 226.9083 281.3341 226.9083 291.9454 221.3399 291.9454 221.3399 294.512 208.7482 294.512 208.7482 266.1545 209.3502 265.2218 224.0487 272.7207 224.0487 281.3341 226.9083 281.3341 Z" id="40"/>
<path d="M 245.512 283.7325 245.512 306.3571 231.7407 306.3571 231.7407 291.9454 226.9083 291.9454 226.9083 281.3341 230.9075 281.3341 230.9075 276.198 245.512 283.7325 Z" id="190"/>
<path d="M 358.3011 597.5697 358.3011 625.5136 352.4571 625.5136 352.4571 622.2341 347.9676 622.2341 347.9676 618.8627 340.3352 618.8627 340.3352 600.1889 358.3011 597.5697 Z" id="120"/>
<path d="M 482.9619 1116.211 482.9619 1145.0338 464.0816 1145.0338 464.0816 1135.3723 469.2755 1135.3723 469.2755 1123.5344 478.4129 1116.211 482.9619 1116.211 Z" id="60"/>
<path d="M 475.5158 1807.2142 475.5158 1820.5654 458.968 1820.5654 456.9786 1835.7978 451.2801 1834.2645 451.2801 1813.347 455.8823 1807.2142 475.5158 1807.2142 Z" id="8"/>
<path d="M 501.8246 1495.5231 501.8246 1523.7059 488.3718 1523.7059 488.3718 1493.143 493.1334 1492.3326 501.8246 1495.5231 Z" id="112"/>
<path d="M 157.9983 1505.3559 157.9983 1531.4577 139.4277 1525.121 139.4277 1511.4663 143.2022 1511.4663 143.2022 1505.3559 157.9983 1505.3559 Z" id="11"/>
<path d="M 556.0363 1187.7485 556.0363 1205.6225 537.5363 1205.6225 537.5363 1181.7499 556.1639 1186.0372 556.0363 1187.7485 Z" id="76"/>
<path d="M 312.8822 862.581 312.8822 827.0807 322.6746 827.0807 322.6746 842.8134 327.5038 842.8134 327.5038 854.9116 322.3041 855.4561 322.9399 861.5278 312.8822 862.581 Z" id="135"/>
<path d="M 535.1982 1474.6817 535.1982 1461.8297 548.9811 1461.8297 548.9811 1459.5924 555.7846 1459.5924 555.7846 1465.6456 559.9102 1465.6456 559.9102 1477.138 557.1008 1477.138 557.1008 1479.5944 547.7955 1479.5944 535.1982 1474.6817 Z" id="124"/>
<path d="M 387.4077 1505.739 399.0974 1505.739 399.0974 1495.6876 409.3139 1502.2131 409.3139 1522.272 396.6748 1522.272 396.6748 1518.1674 387.4077 1518.1674 387.4077 1505.739 Z" id="82"/>
<path d="M 385.9591 856.9248 367.8838 858.2086 367.8838 836.2621 385.9591 836.2621 385.9591 856.9248 Z" id="326"/>
<path d="M 533.6058 1503.5184 549.1367 1505.8971 549.1367 1529.3439 533.6058 1529.3439 533.6058 1503.5184 Z" id="69"/>
<path d="M 409.0912 275.3111 409.0912 297.9618 390.9814 297.9618 390.9814 278.3908 409.0912 275.3111 Z" id="184"/>
<path d="M 379.198 1763.4961 357.9689 1765.8806 357.9689 1746.5327 379.198 1747.3059 379.198 1763.4961 Z" id="188"/>
<path d="M 332.6228 1520.7886 332.6228 1500.4756 349.6472 1497.0005 349.6472 1520.7886 332.6228 1520.7886 Z" id="187"/>
<path d="M 516.4445 1500.89 516.4445 1523.7059 501.8246 1523.7059 501.8246 1495.5231 516.4445 1500.89 Z" id="87"/>
<path d="M 349.4365 888.3775 349.4365 904.3226 357.2812 904.3226 357.2812 907.9502 330.795 907.9502 330.508 890.896 349.4365 888.3775 Z" id="33"/>
<path d="M 385.9591 856.9248 385.9591 821.5719 395.6375 821.5719 395.6375 842.2297 400.3213 842.2297 400.3213 849.1522 395.6942 849.1522 395.6942 856.2334 385.9591 856.9248 Z" id="201"/>
<path d="M 385.583 908.8656 385.583 882.3037 395.5081 880.7715 395.5081 886.5402 399.9846 886.5402 399.9846 908.8656 385.583 908.8656 Z" id="93"/>
<path d="M 172.1646 203.5776 172.1646 227.0391 159.8067 220.5813 158.0081 219.1788 156.3408 217.6225 154.8178 215.9248 153.451 214.0989 152.2512 212.1592 151.2278 210.1209 150.3888 208 149.7409 205.8132 149.2891 203.5776 172.1646 203.5776 Z" id="176"/>
<path d="M 280.7878 1755.2156 280.7878 1771.7817 260.1924 1773.9286 260.1924 1755.2156 280.7878 1755.2156 Z" id="150"/>
<path d="M 521.2179 555.3945 521.2179 577.0718 503.2915 573.961 503.2915 555.3945 521.2179 555.3945 Z" id="22"/>
<path d="M 213.2791 616.2227 213.2791 635.987 195.3685 630.1431 195.3841 608.462 203.4686 613.229 213.2791 616.2227 Z" id="41"/>
<path d="M 481.0671 232.4689 481.0671 253.9963 463.3955 251.6093 463.3955 232.4689 481.0671 232.4689 Z" id="335"/>
<path d="M 172.1646 227.0391 172.1646 203.5776 185.6296 203.5776 185.6296 206.6862 187.4516 206.6862 187.4516 218.2441 185.6185 219.3988 185.6185 221.4903 180.3736 231.5477 172.1646 227.0391 Z" id="149"/>
<path d="M 195.3841 608.462 195.3685 630.1431 182.8467 625.5442 182.8467 613.9112 176.9208 613.8236 176.9208 599.9427 195.3841 608.462 Z" id="42"/>
<path d="M 354.4008 263.4608 354.4008 241.5723 372.5886 241.5723 372.5702 258.5732 354.4008 263.4608 Z" id="138"/>
<path d="M 317.8603 307.4226 317.8603 290.2821 336.7321 287.1311 336.7321 307.4226 317.8603 307.4226 Z" id="136"/>
<path d="M 367.1911 885.143 367.1911 907.9502 357.2812 907.9502 357.2812 904.3226 349.4365 904.3226 349.4365 888.3775 367.1911 885.143 Z" id="175"/>
<path d="M 424.6918 1444.9766 424.6918 1461.4638 415.836 1462.3075 404.8206 1463.3569 404.8206 1444.9766 415.836 1444.9766 424.6918 1444.9766 Z" id="109"/>
<path d="M 332.6228 1500.4756 332.6228 1520.7886 314.0173 1520.7886 314.0992 1503.9976 332.6228 1500.4756 Z" id="98"/>
<path d="M 392.6454 1150.727 375.34 1151.7807 375.34 1131.41 392.6454 1131.41 392.6454 1150.727 Z" id="182"/>
<path d="M 550.9128 863.8895 550.9128 852.9123 569.4899 852.9123 569.4899 856.079 575.8909 856.079 575.8909 868.403 565.154 868.403 550.9128 863.8895 Z" id="23"/>
<path d="M 276.9481 899.5364 276.9481 927.016 264.4229 927.016 264.4229 901.1077 276.9481 899.5364 Z" id="68"/>
<path d="M 263.7126 291.666 263.7126 306.3571 245.512 306.3571 245.512 283.7325 251.3636 286.8536 257.4431 289.5035 263.7126 291.666 Z" id="100"/>
<path d="M 373.2546 1179.4226 373.2546 1202.5042 363.597 1202.5042 363.597 1197.5852 356.0225 1197.5852 356.0225 1182.7836 373.2546 1179.4226 Z" id="56"/>
<path d="M 463.3955 232.4689 463.3955 251.6093 445.1114 249.5732 445.1114 232.4689 463.3955 232.4689 Z" id="222"/>
<path d="M 684.4509 555.0084 666.354 566.6235 665.7654 542.9315 684.4509 542.9315 684.4509 555.0084 Z" id="145"/>
<path d="M 299.4304 1473.4657 278.2412 1474.9308 278.2412 1458.669 299.4304 1458.669 299.4304 1473.4657 Z" id="5"/>
<path d="M 686.5762 874.1352 699.0178 889.2491 685.8085 900.1229 676.568 887.0373 678.5882 885.6107 675.6778 880.97 686.5762 874.1352 Z" id="16"/>
<path d="M 629.8177 614.2659 629.8177 631.4012 624.0087 635.2509 611.7501 635.2509 611.7501 618.8846 613.2764 618.8846 619.8502 617.6275 629.8177 614.2659 Z" id="168"/>
<path d="M 643.8703 606.0065 652.5929 619.8 649.4978 621.7572 648.7563 620.4723 629.8177 631.4012 629.8177 614.2659 643.8703 606.0065 Z" id="79"/>
<path d="M 586.5712 901.2216 586.5712 926.4203 574.7295 926.4203 574.7295 912.778 572.7051 912.778 572.7051 903.8977 578.226 903.8977 578.226 899.1543 586.5712 901.2216 Z" id="81"/>
<path d="M 312.9386 893.1647 312.9386 911.5188 294.5381 911.5188 294.5381 896.4223 312.9386 893.1647 Z" id="248"/>
<path d="M 611.7501 618.8846 611.7501 635.2509 593.2024 635.2509 593.2024 618.0349 595.3364 618.325 598.3223 618.6849 601.3178 618.954 604.32 619.132 606.7998 619.1773 609.2788 619.0948 611.7501 618.8846 Z" id="51"/>
<path d="M 196.829 240.2716 197.8376 217.9292 209.8746 217.9292 209.8746 223.3776 207.0842 223.3776 207.0842 231.4978 209.9348 231.4978 209.9348 247.2112 196.829 240.2716 Z" id="72"/>
<path d="M 595.594 1761.7504 595.594 1773.6838 595.0718 1773.6838 574.8463 1770.4019 574.8463 1758.1705 590.4449 1758.1705 590.4449 1755.4857 595.594 1755.4857 595.594 1761.7504 Z" id="107"/>
<path d="M 283.4296 1510.129 283.4296 1517.1067 251.3714 1517.1067 251.2642 1532.0487 246.4948 1532.0487 246.4948 1519.3711 249.2485 1519.3711 249.2485 1511.6075 260.0739 1511.6075 279.2012 1508.3109 283.4296 1510.129 Z" id="162"/>
<path d="M 556.7908 1159.0259 556.7908 1149.4397 566.1668 1149.4397 566.1668 1147.3255 574.7722 1147.3255 574.7722 1150.5673 581.3556 1150.5673 581.3556 1162.9706 556.7908 1159.0259 Z" id="53"/>
<path d="M 354.7496 284.3659 354.7496 308.3725 345.5407 308.3725 345.5407 306.1052 340.6025 306.1052 340.6025 294.3687 343.6054 294.3687 343.6054 286.3665 354.7496 284.3659 Z" id="302"/>
<path d="M 268.1959 611.7858 268.1959 630.6906 253.9524 630.6906 253.9524 619.4145 248.5512 619.4145 248.349 614.6207 268.1959 611.7858 Z" id="36"/>
<path d="M 298.614 1770.3162 280.7878 1771.7817 280.7878 1755.2156 298.614 1755.2156 298.614 1770.3162 Z" id="297"/>
<path d="M 298.7195 1803.9304 298.7195 1821.5623 282.3792 1821.5623 282.3792 1817.6553 279.8735 1817.6553 279.8735 1808.2383 298.7195 1803.9304 Z" id="296"/>
<path d="M 431.6368 553.6721 431.6368 567.681 412.7475 569.3167 412.7475 553.6721 431.6368 553.6721 Z" id="137"/>
<path d="M 391.6051 253.793 380.3696 255.8902 380.3696 249.5029 376.7603 249.5029 376.7603 236.6373 384.7431 236.6373 384.7431 232.4689 391.6051 232.4689 391.6051 253.793 Z" id="71"/>
<path d="M 377.2942 594.8008 377.2942 610.8912 358.3011 610.8912 358.3011 597.5697 377.2942 594.8008 Z" id="170"/>
<path d="M 272.8125 1809.1766 272.8125 1832.1661 259.9644 1832.1661 259.9644 1812.2455 272.8125 1809.1766 Z" id="229"/>
<path d="M 464.0816 1135.3723 464.0816 1145.0338 447.3279 1145.8169 447.3279 1129.0117 464.0816 1129.0117 464.0816 1135.3723 Z" id="128"/>
<path d="M 300.7666 1144.6396 300.7666 1158.9393 282.744 1160.4541 282.744 1144.6396 300.7666 1144.6396 Z" id="199"/>
<path d="M 424.6918 1461.4638 424.6918 1444.9766 425.8835 1444.9766 441.9523 1444.9766 441.9523 1459.8194 424.6918 1461.4638 Z" id="156"/>
<path d="M 226.0718 617.6242 226.0718 640.161 213.2791 635.987 213.2791 616.2227 216.2037 616.6262 221.0809 617.1195 226.0718 617.6242 Z" id="132"/>
<path d="M 409.6545 1793.8555 409.6545 1811.9657 397.6136 1811.9657 397.6136 1789.9806 407.6949 1787.5335 407.6949 1793.8555 409.6545 1793.8555 Z" id="301"/>
<path d="M 363.8064 282.7401 363.8064 298.8532 367.7927 298.8532 367.7927 308.5315 354.7496 308.5315 354.7496 284.3659 363.8064 282.7401 Z" id="159"/>
<path d="M 313.9184 24.2478 313.9184 37.7238 293.7177 37.7238 293.7177 25.0627 304.0415 25.0627 304.0415 24.2478 313.9184 24.2478 Z" id="214"/>
<path d="M 368.1071 1466.1745 368.1071 1445.054 377.8986 1445.054 377.8986 1450.7283 380.4414 1450.7283 380.4414 1452.907 383.7124 1452.907 383.7124 1459.9274 379.8359 1459.9274 379.8359 1465.0111 368.1071 1466.1745 Z" id="10"/>
<path d="M 260.8858 1476.4677 260.8858 1459.5924 270.4803 1459.5924 277.0042 1459.5924 277.0042 1474.7034 270.4803 1475.4175 260.8858 1476.4677 Z" id="196"/>
<path d="M 293.4736 850.2833 293.4736 864.6132 276.5888 866.3181 276.5888 850.2833 293.4736 850.2833 Z" id="113"/>
<path d="M 404.5337 596.5678 404.5337 615.3292 393.0705 615.4452 393.0705 593.0935 397.3543 593.0935 404.5337 596.5678 Z" id="84"/>
<path d="M 294.5381 896.4223 294.5381 911.5188 276.9481 911.5188 276.9481 899.5364 294.5381 896.4223 Z" id="63"/>
<path d="M 652.5929 619.8 643.8703 606.0065 656.4452 598.0581 658.3293 601.0388 661.5176 601.0388 661.5176 614.1562 652.5929 619.8 Z" id="38"/>
<path d="M 628.8138 1162.7472 610.6644 1162.7472 610.6644 1149.8005 628.8138 1149.8005 628.8138 1162.7472 Z" id="67"/>
<path d="M 515.7364 1469.5406 515.2042 1469.4 505.5809 1467.8597 505.5809 1445.5645 515.7364 1445.5645 515.7364 1469.5406 Z" id="264"/>
<path d="M 390.9814 278.3908 390.9814 297.9618 376.8573 297.9618 376.8573 288.447 380.0774 288.447 380.0774 280.1188 390.9814 278.3908 Z" id="184"/>
<path d="M 605.0975 868.4511 589.2204 868.4511 589.2204 865.8747 591.7273 865.8747 591.7273 851.456 605.0975 851.456 605.0975 868.4511 Z" id="43"/>
<path d="M 527.2979 258.4301 527.2979 234.5802 536.9931 234.5802 536.9931 258.4301 527.2979 258.4301 Z" id="316"/>
<path d="M 534.1588 1763.32 524.0154 1761.5545 524.0154 1740.1845 534.1588 1739.1227 534.1588 1763.32 Z" id="252"/>
<path d="M 317.8603 290.2821 317.8603 307.4226 309.9356 307.4226 309.9356 306.541 302.9969 306.541 302.9969 292.7165 317.8603 290.2821 Z" id="158"/>
<path d="M 393.1722 27.7732 393.1722 40.3403 384.0031 40.3403 379.3985 37.7238 373.1723 37.7238 373.1723 31.9117 373.1723 27.7732 393.1722 27.7732 Z" id="287"/>
<path d="M 423.5073 232.0735 423.5073 243.7662 418.6527 243.7662 418.6527 248.7446 408.9874 250.5486 408.9874 232.0735 423.5073 232.0735 Z" id="169"/>
<path d="M 496.921 1444.1524 496.921 1466.4737 486.4475 1464.7974 486.4475 1444.1524 496.921 1444.1524 Z" id="48"/>
<path d="M 500.3686 256.3117 490.7179 255.154 490.7178 232.5024 500.3686 232.5024 500.3686 256.3117 Z" id="255"/>
<path d="M 354.4008 241.5723 354.4008 263.4608 344.6246 266.2657 344.6246 243.8761 347.8325 241.5723 354.4008 241.5723 Z" id="147"/>
<path d="M 503.0802 596.5109 503.0802 614.8102 490.3189 614.8102 490.3189 600.9007 493.6188 600.9007 493.6188 595.7269 503.0802 596.5109 Z" id="117"/>
<path d="M 646.6679 1150.4523 646.6679 1162.8317 628.8138 1162.7472 628.8138 1150.4523 646.6679 1150.4523 Z" id="276"/>
<path d="M 526.7535 277.9725 526.7535 300.7532 517.3809 300.7532 517.3809 276.7159 526.7535 277.9725 Z" id="281"/>
<path d="M 646.6679 1162.8317 646.6679 1150.4523 661.2179 1150.4523 661.2179 1151.347 670.0255 1151.347 670.0255 1154.1 661.3163 1159.606 652.558 1162.7522 646.6679 1162.8317 Z" id="52"/>
<path d="M 319.7921 1767.9298 319.7921 1749.3942 329.3869 1749.3942 333.688 1749.3942 333.688 1759.3331 329.3044 1759.3331 329.3044 1766.772 319.7921 1767.9298 Z" id="47"/>
<path d="M 490.7178 232.5024 490.7179 255.154 481.0671 253.9963 481.0671 232.4689 490.7178 232.5024 Z" id="304"/>
<path d="M 202.2896 24.2478 202.3313 34.308 181.2432 34.308 181.2432 24.2478 202.2896 24.2478 Z" id="268"/>
<path d="M 319.589 1157.3659 319.6021 1156.79 319.6021 1139.4115 333.3073 1139.4129 333.3073 1149.7036 329.6644 1149.7036 329.6644 1156.1245 319.589 1157.3659 Z" id="245"/>
<path d="M 263.6401 25.104 263.6401 37.7238 247.221 37.7238 247.221 25.104 263.6401 25.104 Z" id="227"/>
<path d="M 263.7126 306.3571 263.7126 291.666 268.9773 293.0788 274.2814 294.3354 279.6204 295.4346 279.6022 299.0654 281.3415 299.0654 281.3415 305.4126 273.5997 305.3522 273.5997 306.3571 263.7126 306.3571 Z" id="134"/>
<path d="M 176.9208 599.9427 176.9208 613.8236 163.3625 613.8236 163.3015 600.7517 166.2658 600.7517 168.4439 596.0313 176.9208 599.9427 Z" id="30"/>
<path d="M 368.5417 1793.9437 368.5417 1813.5799 357.8778 1813.5799 357.8778 1795.742 368.5417 1793.9437 Z" id="146"/>
<path d="M 197.8376 217.9292 196.829 240.2716 183.7233 233.332 191.426 217.9292 197.8376 217.9292 Z" id="149"/>
<path d="M 536.1262 279.2291 536.1262 299.0022 531.2491 299.0022 531.2491 300.7532 526.7535 300.7532 526.7535 277.9725 536.1262 279.2291 Z" id="315"/>
<path d="M 393.1722 40.3403 393.1722 27.7732 408.878 27.7732 408.878 40.3403 393.1722 40.3403 Z" id="282"/>
<path d="M 467.3321 1738.4257 467.3321 1755.6269 465.6574 1755.6269 456.2106 1757.0783 456.2106 1741.0903 457.8104 1738.4257 467.3321 1738.4257 Z" id="164"/>
<path d="M 384.1994 1506.9236 370.0288 1506.9236 370.0288 1492.6593 380.5912 1490.7416 380.5912 1497.63 384.1994 1497.63 384.1994 1506.9236 Z" id="18"/>
<path d="M 353.7634 48.3002 353.7634 58.3684 333.7127 58.3684 333.7127 50.3493 341.5992 48.3002 353.7634 48.3002 Z" id="226"/>
<path d="M 505.5809 1445.5645 505.5809 1467.8597 496.921 1466.4737 496.921 1444.1524 505.5809 1445.5645 Z" id="105"/>
<path d="M 527.2979 258.4301 518.9139 258.4301 518.9139 257.7052 517.1573 257.7052 517.1573 239.462 527.2979 239.462 527.2979 258.4301 Z" id="97"/>
<path d="M 377.2942 610.8912 377.2942 594.8008 385.8193 593.558 385.8193 599.2078 390.0157 599.2078 390.0157 610.819 377.2942 610.8912 Z" id="177"/>
<path d="M 545.3174 280.3542 545.3174 300.7532 540.2257 300.7532 540.2257 299.0022 536.1262 299.0022 536.1262 279.2291 545.3174 280.3542 Z" id="211"/>
<path d="M 670.181 866.1647 670.181 884.6716 660.164 884.6716 660.164 866.1647 670.181 866.1647 Z" id="272"/>
<path d="M 432.5052 852.2038 422.3181 853.1608 422.3181 835.1704 432.5052 835.1704 432.5052 852.2038 Z" id="165"/>
<path d="M 343.981 27.1709 343.981 37.7238 342.3387 36.8885 340.6271 36.2062 338.8605 35.6827 337.0535 35.3224 335.2212 35.1281 333.3789 35.1015 331.5418 35.2429 329.7252 35.5511 327.9442 36.0234 327.9442 24.2478 341.5423 24.2478 341.5423 27.1709 343.981 27.1709 Z" id="331"/>
<path d="M 368.5417 1813.5799 368.5417 1793.9437 377.1959 1792.4843 377.1959 1813.5799 368.5417 1813.5799 Z" id="61"/>
<path d="M 348.7372 1797.2835 348.7372 1813.7933 337.5188 1813.7933 337.5188 1799.0161 348.7372 1797.2835 Z" id="202"/>
<path d="M 253.7632 53.1777 253.7632 58.5964 253.1581 58.5964 233.4397 58.5964 232.9317 58.5964 232.9317 48.3002 245.309 48.3002 245.309 53.1777 253.7632 53.1777 Z" id="253"/>
<path d="M 554.5085 281.4792 554.5085 298.6714 549.8516 298.6714 549.8516 300.7532 545.3174 300.7532 545.3174 280.3542 554.5085 281.4792 Z" id="267"/>
<path d="M 500.3686 256.3117 500.3686 242.6442 512.3025 242.6442 512.3025 257.6749 500.3686 256.3117 Z" id="122"/>
<path d="M 244.9609 24.2478 244.9609 37.8121 232.3886 37.8121 232.3886 24.2478 244.9609 24.2478 Z" id="265"/>
<path d="M 255.0931 1497.606 257.4419 1505.5503 246.7219 1505.5503 247.4446 1488.0367 258.285 1485.6294 255.0931 1493.0922 255.0931 1497.606 Z" id="153"/>
<path d="M 477.0077 1738.4257 477.0077 1755.6269 467.3321 1755.6269 467.3321 1738.4257 475.1042 1738.4257 477.0077 1738.4257 Z" id="307"/>
<path d="M 302.9969 292.7165 302.9969 304.1716 287.5972 304.1716 287.5972 294.6748 302.9969 292.7165 Z" id="163"/>
<path d="M 486.3788 1738.4257 486.3788 1755.6269 477.0077 1755.6269 477.0077 1738.4257 486.3788 1738.4257 Z" id="261"/>
<path d="M 435.7963 232.4689 435.7963 249.5732 426.4811 249.5732 426.4811 232.4689 435.7963 232.4689 Z" id="160"/>
<path d="M 445.1114 232.4689 445.1114 249.5732 435.7963 249.5732 435.7963 232.4689 445.1114 232.4689 Z" id="103"/>
<path d="M 363.8064 298.8532 363.8064 282.7401 373.1793 281.0575 373.1793 298.8532 363.8064 298.8532 Z" id="218"/>
<path d="M 357.8778 1795.742 357.8778 1813.5799 348.7372 1813.5799 348.7372 1797.2835 357.8778 1795.742 Z" id="114"/>
<path d="M 284.2463 24.2478 284.2463 37.7238 272.7915 37.7238 272.7664 24.2478 284.2463 24.2478 Z" id="254"/>
<path d="M 263.6401 48.3002 263.6401 63.5726 253.1581 63.5726 253.1581 58.5964 253.7632 58.5964 253.7632 53.1777 253.7632 48.3002 263.6401 48.3002 Z" id="242"/>
<path d="M 495.2166 1738.4257 495.2166 1756.3692 490.9597 1755.6269 486.3788 1755.6269 486.3788 1738.4257 495.2166 1738.4257 Z" id="259"/>
<path d="M 399.0974 1495.6876 399.0974 1505.739 387.4077 1505.739 387.4077 1490.4253 399.0974 1495.6876 Z" id="186"/>
<path d="M 304.0415 57.5544 304.0415 48.3002 319.7007 48.3002 319.7007 57.5544 304.0415 57.5544 Z" id="327"/>
<path d="M 610.6644 1162.7472 599.0138 1162.7472 599.0138 1150.2583 610.6644 1150.3796 610.6644 1162.7472 Z" id="195"/>
<path d="M 572.2661 874.5893 572.2661 893.2896 564.623 893.2896 564.623 874.5893 572.2661 874.5893 Z" id="203"/>
<path d="M 283.3939 48.3002 283.3939 57.5544 284.3504 57.5544 284.3504 63.5726 275.2576 63.5726 275.2576 57.5544 272.9558 57.5544 272.9558 51.5736 276.4055 51.5736 276.4055 48.3002 283.3939 48.3002 Z" id="220"/>
<path d="M 226.0718 617.6242 233.0966 617.0549 238.1216 616.2172 241.4306 615.5044 241.4306 625.4325 226.0718 625.4325 226.0718 617.6242 Z" id="181"/>
<path d="M 441.2082 1842.9585 438.6183 1845.8127 425.2667 1845.8127 425.2667 1837.3826 441.2082 1837.1836 441.2082 1842.9585 Z" id="325"/>
<path d="M 313.9184 37.7238 313.9184 24.2478 324.25 24.2478 324.25 34.1064 321.321 35.6794 321.321 37.7238 313.9184 37.7238 Z" id="209"/>
<path d="M 303.5458 1191.0942 303.5458 1205.3008 301.1652 1205.3008 293.7719 1205.3008 293.7719 1193.0603 303.5458 1191.0942 Z" id="328"/>
<path d="M 184.7499 863.9336 184.7499 874.9718 173.533 874.9718 173.533 863.9336 184.7499 863.9336 Z" id="133"/>
<path d="M 482.9578 1473.0163 482.9578 1486.192 472.992 1482.4805 473.7967 1470.4801 482.9578 1473.0163 Z" id="49"/>
<path d="M 224.3003 1516.5405 229.3267 1516.5405 237.6338 1512.9265 238.3315 1520.3189 233.4489 1520.3189 233.4489 1523.6387 228.9922 1523.6387 228.9922 1527.4259 224.3003 1527.4259 224.3003 1516.5405 Z" id="3"/>
<path d="M 232.9317 48.3002 232.9317 58.5964 220.6769 58.5964 220.6769 51.4164 224.1618 51.4164 224.1618 48.3002 232.9317 48.3002 Z" id="29"/>
<path d="M 232.3886 1 232.3886 11.1215 221.3604 11.1215 221.3604 1 232.3886 1 Z" id="99"/>
<path d="M 209.9897 58.6618 211.3192 58.6618 211.3192 48.3002 217.7948 48.3002 217.7948 63.6008 209.9897 63.6008 209.9897 58.6618 Z" id="286"/>
<path d="M 263.6401 63.5726 263.6401 48.3002 270.4644 48.3002 270.4644 63.5726 263.6401 63.5726 Z" id="258"/>
<path d="M 403.0139 58.3684 403.0139 48.3002 413.0609 48.3002 413.0609 58.3284 403.0139 58.3684 Z" id="194"/>
<path d="M 393.0976 48.3002 393.0976 58.3684 383.0805 58.3684 383.0805 48.3002 393.0976 48.3002 Z" id="233"/>
<path d="M 293.7719 1193.0603 293.7719 1205.3008 285.1213 1205.3008 285.1213 1194.281 293.7719 1193.0603 Z" id="185"/>
<path d="M 403.0139 48.3002 403.0139 58.3684 393.0976 58.3684 393.0976 48.3002 403.0139 48.3002 Z" id="278"/>
<path d="M 383.0805 48.3002 383.0805 58.3684 373.2993 58.3684 373.2993 48.3002 383.0805 48.3002 Z" id="50"/>
<path d="M 373.2993 48.3002 373.2993 58.3684 362.4739 58.3684 362.4739 51.4423 366.0798 51.4423 366.0798 48.3002 373.2993 48.3002 Z" id="333"/>
<path d="M 333.7127 50.3493 333.7127 58.3684 323.3407 58.3684 323.3407 48.3002 325.2888 48.2789 333.7127 50.3493 Z" id="115"/>
<path d="M 293.7177 25.0627 293.7177 37.7238 286.4176 37.7238 286.4176 25.0627 293.7177 25.0627 Z" id="277"/>
<path d="M 246.405 876.4398 246.405 895.9336 241.6767 895.9336 241.6767 876.4398 246.405 876.4398 Z" id="198"/>
<path d="M 263.6401 25.104 270.6523 25.104 270.6523 37.7238 263.6401 37.8121 263.6401 25.104 Z" id="311"/>
<path d="M 510.5231 275.9554 510.5231 285.2975 501.5631 285.2975 501.5631 274.9619 510.5231 275.9554 Z" id="305"/>
<path d="M 354.2246 33.9906 354.2246 37.7238 343.981 37.7238 343.981 27.1709 348.8892 27.1709 348.8892 30.9639 354.2246 30.9639 354.2246 33.9906 Z" id="125"/>
<path d="M 224.3003 1525.1451 214.1141 1525.1451 214.1141 1516.5405 224.3003 1516.5405 224.3003 1525.1451 Z" id="104"/>
<path d="M 659.777 862.6116 659.777 851.5634 669.134 851.5634 671.5815 855.8129 659.777 862.6116 Z" id="292"/>
<path d="M 457.9979 897.5009 457.9979 902.898 439.1282 902.898 439.1282 900.4889 439.1347 900.3421 439.1539 900.1964 439.1858 900.0529 439.2301 899.9128 439.2865 899.7771 439.3546 899.6469 439.4337 899.5231 439.5234 899.4067 439.6229 899.2986 439.7315 899.1996 439.8483 899.1104 439.9725 899.0319 440.1031 898.9644 440.239 898.9087 440.3793 898.865 440.5229 898.8338 440.6687 898.8153 440.8155 898.8095 453.2565 898.8683 455.8124 898.3322 457.9979 897.5009 Z" id="178"/>
<path d="M 595.594 1773.6838 595.594 1761.7504 602.0869 1761.6014 602.0869 1773.6838 595.594 1773.6838 Z" id="74"/>
<path d="M 251.4018 1175.9992 251.4018 1184.4874 242.9067 1184.4874 242.9067 1175.9992 251.4018 1175.9992 Z" id="95"/>
<path d="M 229.7302 27.324 229.7302 37.7238 229.0007 37.6919 228.2768 37.5966 227.5639 37.4386 226.8676 37.219 226.193 36.9396 225.5453 36.6024 224.9295 36.2101 224.3502 35.7656 223.8119 35.2723 223.3186 34.734 222.8741 34.1547 222.4817 33.5389 222.1446 32.8912 221.8652 32.2166 221.6456 31.5202 221.4876 30.8074 221.3923 30.0834 221.3604 29.354 221.3604 27.324 229.7302 27.324 Z" id="221"/>
<path d="M 353.7634 58.3684 353.7634 48.3002 360.5422 48.3002 360.5422 58.3684 353.7634 58.3684 Z" id="13"/>
<path d="M 304.0415 48.3002 304.0415 57.5544 297.2494 57.5544 297.2494 48.3002 304.0415 48.3002 Z" id="235"/>
<path d="M 373.1723 31.9117 373.1723 37.7238 366.1293 37.7238 366.1293 33.9906 363.3122 33.9906 363.3122 31.9117 366.1293 31.9117 366.1293 27.7732 369.2001 27.7732 369.2001 31.9117 373.1723 31.9117 Z" id="208"/>
<path d="M 331.7944 1776.8144 331.7944 1789.8875 327.783 1789.8875 327.783 1776.7889 331.7944 1776.8144 Z" id="189"/>
<path d="M 344.846 1776.8425 344.846 1789.8836 340.8978 1789.8836 340.8978 1776.9194 344.846 1776.8425 Z" id="66"/>
<path d="M 675.4772 1163.0062 675.4772 1169.6947 667.8787 1169.6947 667.8787 1163.0062 675.4772 1163.0062 Z" id="323"/>
<path d="M 527.9282 1767.8256 527.9282 1779.1285 524.2216 1779.1285 522.972 1767.0435 527.9282 1767.8256 Z" id="27"/>
<path d="M 589.551 1783.4232 589.551 1796.144 585.77 1796.144 585.77 1783.4232 589.551 1783.4232 Z" id="54"/>
<path d="M 288.0124 48.3002 288.0124 57.5544 284.3504 57.5544 283.3939 57.5544 283.3939 48.3002 288.0124 48.3002 Z" id="271"/>
<path d="M 292.6309 48.3002 292.6309 57.5544 288.0124 57.5544 288.0124 48.3002 292.6309 48.3002 Z" id="275"/>
<path d="M 253.7632 53.1777 245.309 53.1777 245.309 48.3002 253.7632 48.3002 253.7632 53.1777 Z" id="225"/>
<path d="M 237.7786 268.3421 246.0688 272.6088 244.2599 276.1235 235.9697 271.8568 237.7786 268.3421 Z" id="250"/>
<path d="M 200.0818 251.0089 198.5744 253.9378 191.6659 250.3822 193.1733 247.4533 200.0818 251.0089 Z" id="243"/>
<path d="M 219.2327 259.5386 217.7253 262.4675 210.8168 258.9119 212.3241 255.983 219.2327 259.5386 Z" id="274"/>
<path d="M 181.4526 241.2895 188.3611 244.8451 186.8537 247.774 179.9452 244.2184 181.4526 241.2895 Z" id="14"/>
<path d="M 354.2246 37.7238 354.2246 33.9906 360.7207 33.9906 360.7207 37.7238 354.2246 37.7238 Z" id="207"/>
<path d="M 314.5424 40.5636 314.5424 42.9411 309.1402 42.9411 309.1402 40.5636 314.5424 40.5636 Z" id="334"/>
<path d="M 240.0473 40.3113 240.0473 42.6888 234.6451 42.6888 234.6451 40.3113 240.0473 40.3113 Z" id="99"/>
<path d="M 261.4981 42.6888 261.4981 40.3113 264.434 40.3097 264.434 42.6873 261.4981 42.6888 Z" id="336"/>
<path d="M 276.6753 42.9411 276.6753 40.5636 279.6112 40.562 279.6112 42.9396 276.6753 42.9411 Z" id="299"/>
<path d="M 276.6753 40.5636 276.6753 42.9411 273.9742 42.9411 273.9742 40.5636 276.6753 40.5636 Z" id="273"/>
<path d="M 261.4981 40.3113 261.4981 42.6888 258.797 42.6888 258.797 40.3113 261.4981 40.3113 Z" id="129"/>
<path d="M 554.5085 281.4792 555.5427 281.7759 556.5987 281.9818 557.6685 282.0953 558.7442 282.1155 559.8176 282.0422 560.8806 281.876 561.9251 281.6182 562.9433 281.2707 563.9275 280.8361 564.8703 280.3177 565.7645 279.7195 566.6034 279.0459 567.3807 278.302 568.0904 277.4935 568.7274 276.6264 569.2866 275.7073 569.764 274.7431 570.1558 273.7411 570.4592 272.7089 570.6719 271.6543 570.7922 270.5852 570.8193 269.5096 570.7529 268.4358 570.5936 267.3718 570.3425 266.3256 570.0015 265.3052 564.5452 249.2449 579.5115 244.1603 579.5115 217.4978 615.969 217.4978 615.969 225.8699 630.643 225.8699 630.643 222.9223 639.5918 222.9223 639.5918 217.4978 641.9972 217.4978 641.9972 212.0542 713.5694 212.0542 713.5694 256.3344 717.345 256.3344 717.345 277.9099 676.7805 304.7679 606.0482 304.7679 606.0482 310.532 600.6043 310.532 600.6043 314.7834 597.9348 314.7834 597.9348 317.2843 586.9234 317.2843 586.9234 319.535 582.1685 319.535 572.8254 319.535 572.8254 304.8634 566.1518 304.8634 566.1518 300.6953 557.9767 300.6953 557.9767 298.778 554.5085 298.6714 554.5085 281.4792 Z" id="144"/>
<path d="M 162.1025 1146.7163 148.9487 1135.3836 83.4547 1135.3836 83.4547 1154.4799 77.4051 1154.4799 47.4199 1130.5657 47.3109 1123.5496 53.685 1120.3218 53.685 1116.3961 62.8531 1116.3961 68.0047 1118.4898 73.6802 1122.59 82.2371 1117.8791 101.7129 1115.175 101.7085 1108.5447 156.9536 1108.5077 156.9751 1112.7283 169.6986 1112.6633 169.7214 1117.1189 174.7104 1117.0935 174.8489 1144.2246 169.5841 1144.2246 165.5662 1144.2246 162.1025 1146.7163 Z" id="0"/>
<path d="M 229.7086 552.2552 226.4403 555.181 226.4403 579.4074 230.609 579.4074 230.609 580.418 234.65 580.418 234.65 583.1248 232.3499 585.0345 213.7423 584.3008 194.7969 581.2951 190.4562 580.4672 186.1754 579.3708 181.9712 578.0102 167.0871 571.5619 167.0871 562.2392 170.9022 562.2392 170.8853 532.0671 229.7086 532.0671 229.7086 552.2552 Z" id="0"/>
<path d="M 238.445 821.5829 238.445 868.4643 233.4562 867.0156 218.359 865.5818 203.426 862.939 188.7538 859.1043 174.4374 854.1026 174.4374 821.5829 238.445 821.5829 Z" id="0"/>
<path d="M 488.3718 1523.7059 501.8246 1523.7059 516.4445 1523.7059 516.4445 1536.7329 520.5389 1536.7329 520.5389 1543.7415 525.4704 1543.7415 525.4704 1546.4382 550.5787 1546.4382 550.5787 1570.2416 543.8031 1570.2416 543.8031 1567.9989 537.4866 1567.9989 537.4866 1571.4454 518.3402 1571.4454 516.7251 1568.9512 513.2014 1568.9512 511.5864 1571.7392 502.0432 1571.7392 498.9603 1568.6578 495.583 1568.6578 493.3808 1571.5923 483.5449 1571.5923 483.5449 1552.7639 490.1515 1552.7639 490.1515 1536.918 488.3718 1536.918 488.3718 1523.7059 Z" id="0"/>
<path d="M 204.1992 1267.2147 196.6146 1295.5556 188.3231 1323.6686 191.5218 1323.6686 188.1708 1332.4951 167.49 1338.4302 167.49 1295.5556 167.49 1269.488 167.49 1265.6991 169.3103 1262.668 173.861 1260.2431 178.7151 1260.2431 204.1992 1267.2147 Z" id="0"/>
<path d="M 556.6722 2078.0901 556.6722 2064.5792 556.6722 2062.9263 580.4094 2068.5522 582.4864 2066.9819 582.4864 2060.8686 580.5217 2054.1946 576.5565 2052.6477 581.4017 2044.6746 581.4017 2032.8573 607.6224 2032.8573 607.6224 2048.6611 618.7377 2048.6611 618.7377 2078.0901 556.6722 2078.0901 Z" id="0"/>
<path d="M 276.6761 248.1988 276.6761 256.4512 278.7358 256.4512 278.7358 257.415 282.9277 257.415 282.9277 266.5814 272.7231 266.6581 262.5508 265.8437 252.4883 264.1445 242.6127 261.5734 232.9991 258.15 223.7211 253.9005 214.8494 248.8574 214.8494 237.3745 219.0858 237.3745 219.0858 233.5644 224.2541 233.5644 224.2541 232.1261 272.9819 232.1261 272.9819 243.6696 280.3338 243.6696 280.3338 248.1988 276.6761 248.1988 Z" id="0"/>
<path d="M 358.0819 574.2281 320.4352 577.1517 319.6783 572.0973 317.4132 572.0973 317.4132 559.8587 324.6445 559.8587 324.6445 537.6165 320.9899 537.6165 320.9899 531.8547 356.7816 531.8876 356.7816 536.5073 358.0819 536.5073 358.0819 574.2281 Z" id="0"/>
<path d="M 520.0546 2025.1507 520.0546 2035.6567 515.1436 2043.9691 499.0816 2039.5243 487.5884 2038.3211 440.7997 2042.4243 435.0795 2039.4935 435.0795 2023.6686 520.0546 2025.1507 Z" id="0"/>
<path d="M 104.0613 595.8901 121.2036 574.8939 160.859 592.8592 159.5723 595.6994 159.5723 610.1653 144.8769 610.1653 113.1849 610.1653 113.1849 601.3846 104.0613 595.8901 Z" id="0"/>
<path d="M 374.9303 2076.5493 375.3256 2091.0317 356.35 2090.6367 356.35 2103.1442 378.4882 2103.1442 378.4882 2117.2316 331.5762 2104.8558 328.5453 2097.2196 330.7855 2087.7402 336.7044 2077.5928 374.9303 2076.5493 Z" id="0"/>
<path d="M 148.838 869.2768 148.838 895.9197 143.9734 895.1981 143.9734 892.0041 128.8148 892.0041 128.8148 895.669 122.4251 895.669 110.6965 889.1331 110.6965 853.9066 112.0713 851.2293 148.838 869.2768 Z" id="0"/>
<path d="M 156.879 541.1149 156.879 566.375 95.4234 536.665 93.4137 536.665 93.2419 532.1296 158.6199 532.1296 158.6199 541.1149 156.879 541.1149 Z" id="0"/>
<path d="M 309.0262 532.0201 309.0262 566.2447 313.8478 566.2447 313.8478 572.6032 312.1702 573.0094 312.7305 577.8416 284.5847 579.9483 284.5847 532.1405 309.0262 532.0201 Z" id="0"/>
<path d="M 611.7797 1199.9572 611.7797 1222.2156 592.9218 1222.2156 592.9218 1244.8696 577.5931 1248.6343 577.5931 1225.8198 579.4915 1225.8198 581.109 1192.2284 598.3303 1196.9814 611.7797 1199.9572 Z" id="0"/>
<path d="M 749.6899 555.3365 719.5761 591.509 710.1972 593.2895 700.7494 597.8391 694.3898 591.3414 708.6416 577.3926 700.6799 569.9376 722.0024 556.2786 723.691 555.2483 725.4229 554.2927 727.195 553.4137 729.8435 552.2728 732.5594 551.3028 735.3314 550.5078 736.766 550.2077 738.2204 550.0268 739.6847 549.9664 741.149 550.0268 742.6034 550.2077 744.038 550.5078 749.6899 555.3365 Z" id="0"/>
<path d="M 611.9026 531.8996 611.9026 550.1912 607.795 550.1912 607.795 551.5742 593.7402 551.5742 593.7402 583.8278 577.0508 583.8278 577.0508 580.4564 580.6004 580.4564 580.6004 551.4745 577.3818 551.4745 577.3818 531.8996 611.9026 531.8996 Z" id="0"/>
<path d="M 358.0819 574.2281 358.0819 536.5073 356.7816 536.5073 356.7816 531.8876 382.3031 532.2544 382.3031 556.6439 386.3007 556.6439 386.3007 572.0367 358.0819 574.2281 Z" id="0"/>
<path d="M 503.2915 555.3945 503.2915 573.961 493.141 571.6637 493.141 564.9274 489.266 564.9274 489.266 560.2803 497.5141 560.2803 497.6203 531.8996 539.3645 531.8996 539.3645 551.4417 503.2915 551.4417 503.2915 555.3945 Z" id="0"/>
<path d="M 611.9026 550.1912 611.9026 531.8996 653.6853 531.8996 653.6853 556.4906 629.4415 556.4906 629.4415 551.5063 615.8408 551.5063 615.8408 550.1912 611.9026 550.1912 Z" id="0"/>
<path d="M 436.4324 1863.9016 436.6758 1864.0445 436.9057 1864.2083 437.1201 1864.3919 437.3175 1864.5937 437.4963 1864.8121 437.6551 1865.0455 437.7927 1865.292 437.9079 1865.5497 437.9999 1865.8166 438.0679 1866.0906 438.1115 1866.3695 438.1302 1866.6512 438.124 1866.9334 438.0928 1867.2139 438.037 1867.4907 437.9569 1867.7614 437.8533 1868.0239 437.7268 1868.2763 437.5785 1868.5165 437.4096 1868.7427 437.2213 1868.953 437.0152 1869.1459 436.7928 1869.3198 436.556 1869.4734 436.3065 1869.6054 436.0463 1869.7149 435.7774 1869.8009 435.502 1869.8629 435.2222 1869.9002 434.9402 1869.9127 417.5916 1869.9127 417.5916 1871.7552 397.1883 1871.7552 357.7171 1871.7552 364.7671 1858.6394 397.1883 1858.6394 426.4864 1858.6394 436.4324 1863.9016 Z" id="0"/>
<path d="M 502.3119 1232.5323 502.3119 1253.8873 470.6229 1253.8873 470.5286 1253.8867 470.4342 1253.8847 470.34 1253.8814 470.2457 1253.8767 470.1516 1253.8708 470.0575 1253.8635 469.9635 1253.8549 469.8697 1253.845 469.776 1253.8338 469.6825 1253.8212 469.5892 1253.8073 469.4961 1253.7922 469.4032 1253.7757 469.3105 1253.7579 469.2181 1253.7389 469.126 1253.7185 469.0342 1253.6968 468.9427 1253.6739 468.8515 1253.6497 468.7607 1253.6241 468.6702 1253.5974 468.5801 1253.5693 468.4904 1253.54 468.4012 1253.5094 468.3123 1253.4776 468.224 1253.4446 468.1361 1253.4103 468.0487 1253.3747 467.9618 1253.338 467.8754 1253.3 467.7896 1253.2609 467.7043 1253.2205 467.6196 1253.1789 467.5355 1253.1362 467.452 1253.0922 467.3692 1253.0471 467.2869 1253.0009 467.2054 1252.9535 467.1245 1252.9049 467.0443 1252.8552 466.9648 1252.8044 466.886 1252.7525 466.8079 1252.6995 466.7306 1252.6454 466.6541 1252.5902 466.5784 1252.534 466.5034 1252.4767 466.4293 1252.4183 466.356 1252.3589 466.2835 1252.2985 466.2119 1252.2371 466.1411 1252.1746 466.0713 1252.1112 466.0023 1252.0468 465.9343 1251.9815 465.8671 1251.9152 465.801 1251.848 465.7357 1251.7798 465.6714 1251.7108 465.6081 1251.6408 465.5458 1251.5699 465.4845 1251.4982 465.4242 1251.4257 465.3649 1251.3523 465.3067 1251.278 465.2495 1251.203 465.1934 1251.1272 465.1383 1251.0506 465.0843 1250.9732 465.0315 1250.895 464.9797 1250.8162 464.929 1250.7366 464.8794 1250.6563 464.831 1250.5753 464.7838 1250.4937 464.7376 1250.4114 464.6927 1250.3284 464.6489 1250.2449 464.6062 1250.1607 464.5648 1250.0759 464.5246 1249.9906 464.4855 1249.9047 464.4477 1249.8183 464.4111 1249.7313 464.3757 1249.6439 464.3415 1249.5559 464.3086 1249.4675 464.2769 1249.3786 464.2465 1249.2893 464.2174 1249.1996 464.1895 1249.1095 464.1628 1249.019 464.1375 1248.9281 464.1134 1248.8369 464.0906 1248.7453 464.0691 1248.6535 464.0488 1248.5613 464.0299 1248.4689 464.0299 1224.8827 475.0892 1224.8827 475.0892 1232.5494 502.3119 1232.5323 Z" id="0"/>
<path d="M 479.9603 1552.3384 479.9603 1574.9949 459.069 1574.9949 445.4847 1558.9857 442.0185 1558.9857 442.0185 1546.2532 452.1366 1547.5638 452.1366 1552.3384 479.9603 1552.3384 Z" id="0"/>
<path d="M 485.6317 550.1671 466.8626 550.1671 466.8626 555.7088 447.3783 555.7088 447.3783 543.2293 460.7937 531.9325 485.6317 531.9325 485.6317 550.1671 Z" id="0"/>
<path d="M 349.3495 836.2621 349.3495 859.5249 330.4629 860.8662 330.4629 821.7438 349.3495 821.7438 349.3495 836.2621 Z" id="0"/>
<path d="M 701.8395 1162.8185 713.6474 1176.5963 690.8998 1195.2295 680.7306 1183.0208 682.0078 1182.4261 682.7767 1181.4685 683.0777 1180.3405 682.9303 1179.2435 680.8167 1175.0302 701.8395 1162.8185 Z" id="0"/>
<path d="M 532.2331 821.7011 532.2331 860.3601 517.4607 858.1146 517.4607 821.7011 532.2331 821.7011 Z" id="0"/>
<path d="M 282.744 1144.6396 282.744 1160.4541 271.518 1163.4824 255.8016 1163.4824 255.8016 1150.8084 263.8843 1150.8084 263.8843 1147.7801 268.2624 1147.7801 268.2624 1144.6396 282.744 1144.6396 Z" id="0"/>
<path d="M 539.4649 555.3945 539.4649 580.2382 521.2179 577.0718 521.2179 555.3945 539.4649 555.3945 Z" id="0"/>
<path d="M 685.1005 579.9176 685.1005 600.4331 673.2464 609.9167 672.2414 608.6605 669.4985 610.8548 665.7086 606.1175 665.7086 596.9282 663.6246 593.6749 685.1005 579.9176 Z" id="0"/>
<path d="M 556.0363 1211.9767 556.0363 1205.6225 556.0363 1187.7485 573.2261 1190.662 573.2261 1211.9954 572.4587 1211.9767 556.0363 1211.9767 Z" id="0"/>
<path d="M 356.0225 1182.7836 356.0225 1197.5852 363.597 1197.5852 363.597 1202.5042 336.9378 1202.5042 336.9378 1186.0368 356.0225 1182.7836 Z" id="0"/>
<path d="M 684.4509 555.0084 684.4509 532.1887 711.5213 532.1887 711.5213 537.634 684.4509 555.0084 Z" id="0"/>
<path d="M 485.6317 550.1671 485.6317 570.8797 466.8626 567.6911 466.8626 550.1671 485.6317 550.1671 Z" id="0"/>
<path d="M 466.9145 601.054 466.9145 625.2595 452.5592 625.2595 452.5592 607.8768 466.9145 601.054 Z" id="0"/>
<path d="M 414.4911 615.3292 414.4911 604.7911 413.6167 602.0186 423.5627 608.318 423.5627 630.1311 412.2938 630.1311 412.2938 615.3292 414.4911 615.3292 Z" id="0"/>
<path d="M 275.563 1782.1301 275.563 1802.2755 264.1123 1802.2755 264.1123 1782.2015 275.563 1782.1301 Z" id="0"/>
<path d="M 466.8626 555.7088 466.8626 567.6911 448.6492 567.033 448.6492 561.0972 447.3783 561.0972 447.3783 555.7088 466.8626 555.7088 Z" id="0"/>
<path d="M 412.7475 553.6721 412.7475 569.3167 402.3093 570.2205 402.3093 553.6721 412.7475 553.6721 Z" id="0"/>
<path d="M 340.3352 600.1889 340.3352 618.8627 331.0003 618.8627 331.0003 601.7449 340.3352 600.1889 Z" id="0"/>
<path d="M 331.0003 601.7449 331.0003 618.8627 321.1695 618.8627 321.0283 603.1596 331.0003 601.7449 Z" id="0"/>
<path d="M 414.4911 615.3292 404.5337 615.3292 404.5337 596.5678 411.756 600.3587 413.6167 602.0186 414.4911 604.7911 414.4911 615.3292 Z" id="0"/>
<path d="M 402.3093 553.6721 402.3093 570.2205 393.9381 570.9454 393.9381 564.6821 389.8519 564.6821 389.8519 561.3194 393.9381 561.3194 393.9381 553.6721 402.3093 553.6721 Z" id="0"/>
<path d="M 176.7718 1484.6218 175.803 1490.2007 178.1585 1497.8603 170.3816 1497.8603 169.1478 1491.5458 169.1478 1486.3523 172.4953 1478.4488 180.7631 1481.108 176.7718 1484.6218 Z" id="0"/>
<path d="M 297.2494 48.3002 297.2494 57.5544 292.6309 57.5544 292.6309 48.3002 297.2494 48.3002 Z" id="0"/>
<path d="M 719.5761 591.509 749.6899 555.3365 783.7397 583.5048 784.1979 583.8804 784.6201 584.2959 785.003 584.7481 785.3432 585.2331 785.6382 585.7469 785.8853 586.2853 786.0826 586.844 786.2284 587.4182 786.3871 588.3852 786.4667 589.3618 786.4667 590.3418 786.3871 591.3184 786.2284 592.2854 783.6549 604.767 782.6175 606.0275 781.4807 607.1991 780.2522 608.2742 779.9037 608.5316 779.5347 608.7586 779.1478 608.9537 778.746 609.1156 778.3319 609.243 777.9085 609.3351 777.4789 609.3912 777.0461 609.4108 776.6132 609.394 776.1832 609.3407 775.7592 609.2513 775.3443 609.1266 774.9414 608.9674 736.1841 591.7259 727.6728 590.655 719.5761 591.509 Z" id="0"/>
<path d="M 539.3645 551.4417 539.3645 531.8996 564.5448 531.8996 564.5448 551.4417 539.3645 551.4417 Z" id="0"/>
<path d="M 232.1165 1295.734 232.1165 1305.2288 228.6607 1309.0651 211.8619 1313.381 208.7901 1313.381 205.8144 1310.216 205.8144 1294.2954 208.2142 1293.0486 228.3727 1293.0486 232.1165 1295.734 Z" id="0"/>
<path d="M 232.4134 1268.3167 232.0376 1280.1518 230.1011 1282.9591 227.5223 1283.5444 215.4736 1281.522 212.4855 1278.4403 212.4855 1274.3955 216.6303 1259.2759 228.572 1263.555 231.15 1265.7921 232.4134 1268.3167 Z" id="0"/>
<path d="M 708.6416 577.3926 685.1005 600.4331 685.1005 579.9176 700.6799 569.9376 708.6416 577.3926 Z" id="0"/>
<path d="M 237.8049 1488.4784 237.8049 1505.9415 225.419 1510.2593 228.1074 1505.8455 230.5078 1499.8006 230.5078 1494.7152 227.9154 1487.1351 237.8049 1488.4784 Z" id="0"/>
<path d="M 557.2711 1490.3681 557.2711 1503.4476 547.1121 1499.8351 548.1716 1487.8767 557.2711 1490.3681 Z" id="0"/>
<path d="M 583.2017 874.3545 583.2017 893.2896 577.087 893.2896 577.087 874.3545 583.2017 874.3545 Z" id="0"/>
<path d="M 309.7277 1480.0187 309.0001 1497.5922 301.2583 1498.2981 302.8329 1494.4358 303.7872 1490.1444 303.7872 1485.6511 301.9053 1480.0187 309.7277 1480.0187 Z" id="0"/>
<path d="M 265.0877 876.5553 265.0877 894.7803 259.0912 894.7803 259.0912 876.5553 265.0877 876.5553 Z" id="0"/>
<path d="M 489.8614 262.2743 489.0732 266.1478 479.9367 264.2886 480.7249 260.4151 489.8614 262.2743 Z" id="0"/>
<path d="M 501.172 264.6865 500.3837 268.56 491.2473 266.7008 492.0355 262.8273 501.172 264.6865 Z" id="0"/>
<path d="M 356.3491 273.6186 356.8623 276.8589 349.5875 278.011 349.0743 274.7707 356.3491 273.6186 Z" id="0"/>
<path d="M 368.3904 271.3819 368.9036 274.6223 361.6288 275.7744 361.1156 272.5341 368.3904 271.3819 Z" id="0"/>
</g>
</svg>
